<svg width="628" height="501" viewBox="0 0 628 501" fill="none" xmlns="http://www.w3.org/2000/svg">
<path d="M615.342 338.224C609.503 316.613 603.667 295.005 597.827 273.393C595.776 265.796 593.715 258.16 592.767 250.304C589.627 224.271 603.552 203.965 609.342 180.045C613.97 160.932 618.048 137.3 615.909 117.63C615.085 110.06 613.382 102.486 609.858 95.9224C605.43 87.6752 598.394 81.5034 590.979 76.4932C565.591 59.3355 536.682 56.4008 507.685 62.1327C478.018 67.9985 452.182 80.3454 421.042 74.4898C383.7 67.4693 351.027 40.5386 313.252 37.0988C281.082 34.171 249.967 48.693 220.942 63.8165C196.076 76.7716 170.627 91.0153 142.903 95.2558C118.803 98.943 95.2576 80.8265 72.1697 75.1977C47.3728 69.1566 16.9031 80.7921 8.51519 108.42C0.754586 133.987 9.97883 163.753 17.0394 188.309C25.4728 217.642 32.9334 247.171 27.7061 278.094C24.8485 295.005 18.997 311.166 13.4303 327.32C4.98792 351.818 -3.49087 375.069 7.91216 400.432C19.6122 426.459 45.9122 428.545 71.0728 429.624C100.636 430.896 130.197 428.844 159.764 428.844C211.406 428.844 263.049 428.844 314.694 428.844C365.588 428.844 416.482 428.844 467.376 428.844C491.309 428.844 515.239 428.844 539.173 428.844C556.939 428.844 578.594 424.518 594.382 416.167C613.706 405.941 618.709 388.316 619.721 367.893C620.239 357.412 618.039 348.213 615.342 338.224Z" fill="url(#paint0_linear_45_38)"/>
<path d="M481.767 464.857C503.209 469.72 530.591 443.208 539.412 414.247C548.491 384.443 531.845 371.955 531.973 330.599C532.118 283.617 553.67 276.538 567.924 213.212C571.139 198.924 589.752 116.242 566.685 100.744C545.358 86.414 485.445 127.537 474.945 180.175C467.458 217.707 490.603 233.466 481.764 277.177C474.006 315.534 453.621 316.087 445.812 353.093C436.306 398.14 453.612 458.473 481.767 464.857Z" fill="#BDD0FB"/>
<path d="M483.321 476.238C477.539 425.621 488.818 347.529 499.294 290.929C510.636 229.652 523.512 179.67 523.642 179.172L525.427 179.766C525.3 180.265 512.442 230.178 501.112 291.376C490.667 347.808 479.418 425.641 485.167 475.964L483.321 476.238Z" fill="#91B3FA"/>
<path d="M506.461 459.204C478.333 442.586 468.706 385.515 484.694 366.969C495.497 354.437 510.988 367.618 525.936 354.629C545.018 338.042 530.982 306.805 545.985 266.29C558.752 231.813 589.379 199.189 607.273 205.883C626.006 212.889 635.873 264.882 619.873 296.17C609.47 316.516 593.542 317.516 590.088 336.44C586.079 358.399 605.449 368.416 605.555 389.704C605.742 427.944 543.67 481.19 506.461 459.204Z" fill="#BDD0FB"/>
<path d="M521.639 473.819C521.473 473.819 521.3 473.778 521.139 473.689C520.57 473.376 520.333 472.599 520.609 471.953C557.897 384.818 568.833 283.737 568.939 282.727C569.015 282.015 569.585 281.503 570.212 281.589C570.839 281.675 571.288 282.321 571.215 283.032C571.109 284.046 560.127 385.567 522.673 473.087C522.473 473.551 522.064 473.819 521.639 473.819Z" fill="#91B3FA"/>
<path d="M598.142 308.901C598.024 308.901 597.906 308.857 597.806 308.771C597.567 308.561 597.524 308.169 597.709 307.898C609.479 290.764 622.524 265.026 617.827 239.696C615.03 224.611 607.158 216.745 607.079 216.666C606.852 216.443 606.824 216.051 607.024 215.79C607.221 215.532 607.57 215.501 607.797 215.728C608.13 216.054 616.027 223.951 618.9 239.442C621.539 253.679 620.155 277.246 598.573 308.661C598.467 308.819 598.303 308.901 598.142 308.901Z" fill="url(#paint1_linear_45_38)"/>
<path d="M503.924 451.596C503.748 451.596 503.579 451.5 503.473 451.325C485.385 421.387 479.215 398.257 485.139 382.574C490.406 368.629 503.703 366.034 503.836 366.01C504.136 365.959 504.415 366.186 504.464 366.522C504.512 366.859 504.309 367.179 504.012 367.234C503.885 367.258 491.161 369.759 486.139 383.075C480.382 398.343 486.518 421.068 504.376 450.62C504.545 450.902 504.482 451.291 504.233 451.483C504.139 451.559 504.03 451.596 503.924 451.596Z" fill="#F0F0F0"/>
<path d="M141.845 451.624C118.312 456.449 87.7758 433.545 77.6364 408.027C67.2031 381.766 85.3394 370.282 84.5879 333.547C83.7334 291.819 59.9031 286.036 43.2728 230.119C39.5212 217.504 17.8091 144.499 42.9728 130.186C66.2394 116.956 132.803 152.073 145.139 198.58C153.936 231.741 128.691 246.287 139.067 284.909C148.173 318.795 170.621 318.808 179.767 351.495C190.906 391.292 172.745 445.291 141.845 451.624Z" fill="#91B3FA"/>
<path d="M140.758 480.781C145.142 435.707 133.973 366.553 123.827 316.479C112.842 262.263 100.667 218.109 100.545 217.669L98.9697 218.229C99.0909 218.669 111.252 262.765 122.218 316.908C132.333 366.838 143.473 435.762 139.112 480.572L140.758 480.781Z" fill="#7D97F4"/>
<path d="M98.0697 466.548C119.909 453.043 126.712 408.13 113.933 393.855C105.297 384.209 93.3212 394.807 81.4334 384.869C66.2515 372.182 76.8515 347.45 64.5576 315.932C54.097 289.111 29.6546 264.043 15.7091 269.593C1.10911 275.404 -5.94846 316.338 7.00608 340.605C15.4303 356.385 27.9333 356.904 30.8879 371.684C34.3182 388.835 19.2606 397.013 19.4546 413.71C19.8061 443.703 69.1788 484.414 98.0697 466.548Z" fill="#BDD0FB"/>
<path d="M86.3576 478.263C86.4879 478.259 86.6212 478.225 86.7485 478.153C87.1909 477.898 87.3667 477.283 87.1424 476.782C56.7636 409.082 46.8697 329.997 46.7727 329.207C46.706 328.65 46.2515 328.258 45.7606 328.337C45.2697 328.413 44.9242 328.929 44.9939 329.485C45.0909 330.279 55.0273 409.7 85.5424 477.706C85.7 478.067 86.0242 478.269 86.3576 478.263Z" fill="#91B3FA"/>
<path d="M24.2061 350.083C24.1182 350.083 24.0303 350.038 23.9697 349.956C16.3364 339.269 11.1364 328.812 8.51517 318.877C6.41214 310.912 5.95456 303.259 7.15153 296.135C9.19396 283.988 15.4455 277.496 15.5091 277.435C15.6333 277.307 15.8243 277.318 15.9364 277.459C16.0485 277.6 16.0394 277.816 15.9152 277.943C15.8546 278.005 9.73638 284.369 7.74244 296.307C5.90002 307.338 7.30002 325.523 24.4424 349.523C24.5485 349.67 24.5273 349.887 24.397 350.007C24.3394 350.059 24.2727 350.083 24.2061 350.083Z" fill="url(#paint2_linear_45_38)"/>
<path d="M99.9515 460.397C99.8939 460.397 99.8364 460.38 99.7849 460.342C99.6455 460.239 99.6061 460.026 99.697 459.868C107.161 446.998 111.936 435.631 113.888 426.074C115.473 418.319 115.215 411.714 113.118 406.446C108.97 396.013 98.9061 394.267 98.803 394.254C98.6364 394.226 98.5212 394.054 98.5455 393.865C98.5697 393.676 98.7212 393.546 98.8879 393.573C98.9909 393.591 109.385 395.391 113.67 406.164C115.821 411.573 116.091 418.325 114.476 426.229C112.506 435.865 107.703 447.308 100.2 460.246C100.145 460.342 100.048 460.397 99.9515 460.397Z" fill="#F0F0F0"/>
<path d="M543.525 216.575C578.617 176.781 578.616 112.263 543.525 72.4699C508.434 32.6765 451.54 32.6765 416.449 72.4699C381.357 112.263 381.357 176.781 416.449 216.575C451.54 256.368 508.434 256.368 543.525 216.575Z" fill="#91B3FA"/>
<path d="M479.991 231.487C522.346 231.487 556.682 192.55 556.682 144.519C556.682 96.4887 522.346 57.552 479.991 57.552C437.636 57.552 403.3 96.4887 403.3 144.519C403.3 192.55 437.636 231.487 479.991 231.487Z" fill="url(#paint3_linear_45_38)"/>
<path d="M479.991 234.59C436.194 234.59 400.564 194.185 400.564 144.519C400.564 94.8537 436.194 54.449 479.991 54.449C523.788 54.449 559.418 94.8537 559.418 144.519C559.418 194.185 523.788 234.59 479.991 234.59ZM479.991 60.6585C439.215 60.6585 406.039 98.2763 406.039 144.519C406.039 190.763 439.212 228.381 479.991 228.381C520.77 228.381 553.942 190.763 553.942 144.519C553.942 98.2763 520.767 60.6585 479.991 60.6585Z" fill="url(#paint4_linear_45_38)"/>
<path d="M479.991 197.539C505.813 197.539 526.745 173.801 526.745 144.519C526.745 115.238 505.813 91.4998 479.991 91.4998C454.169 91.4998 433.236 115.238 433.236 144.519C433.236 173.801 454.169 197.539 479.991 197.539Z" fill="url(#paint5_linear_45_38)"/>
<path d="M479.991 200.642C452.7 200.642 430.497 175.464 430.497 144.516C430.497 113.568 452.7 88.3899 479.991 88.3899C507.282 88.3899 529.485 113.568 529.485 144.516C529.485 175.467 507.282 200.642 479.991 200.642ZM479.991 94.6063C455.721 94.6063 435.976 116.998 435.976 144.519C435.976 172.041 455.721 194.433 479.991 194.433C504.261 194.433 524.006 172.041 524.006 144.519C524.006 116.998 504.261 94.6063 479.991 94.6063Z" fill="url(#paint6_linear_45_38)"/>
<path d="M479.991 165.062C489.996 165.062 498.106 155.865 498.106 144.519C498.106 133.174 489.996 123.977 479.991 123.977C469.986 123.977 461.876 133.174 461.876 144.519C461.876 155.865 469.986 165.062 479.991 165.062Z" fill="url(#paint7_linear_45_38)"/>
<path d="M479.991 168.165C468.494 168.165 459.139 157.557 459.139 144.516C459.139 131.478 468.494 120.87 479.991 120.87C491.488 120.87 500.842 131.478 500.842 144.516C500.842 157.557 491.488 168.165 479.991 168.165ZM479.991 127.083C471.512 127.083 464.615 134.905 464.615 144.519C464.615 154.134 471.512 161.956 479.991 161.956C488.47 161.956 495.367 154.134 495.367 144.519C495.367 134.905 488.47 127.083 479.991 127.083Z" fill="url(#paint8_linear_45_38)"/>
<path d="M564.452 49.0332L566.33 51.1672L495.158 131.877L493.279 129.747L564.452 49.0332Z" fill="url(#paint9_linear_45_38)"/>
<path d="M494.609 124.602C495.688 123.379 500.77 129.145 499.694 130.369L480.839 147.176C480.142 147.798 479.239 146.774 479.788 145.983L494.609 124.602Z" fill="url(#paint10_linear_45_38)"/>
<path d="M566.291 51.2119L575.867 52.2909L562.721 67.1979C558.415 72.0809 552.403 74.5173 546.342 73.8335L566.291 51.2119Z" fill="url(#paint11_linear_45_38)"/>
<path d="M564.412 49.0813L563.461 38.2224L550.315 53.1294C546.009 58.0125 543.861 64.8302 544.464 71.7029L564.412 49.0813Z" fill="url(#paint12_linear_45_38)"/>
<path d="M555.303 479.266H438.118V198.622C438.118 186.096 447.073 175.938 458.121 175.938H535.303C546.349 175.938 555.306 186.093 555.306 198.622V479.266H555.303Z" fill="url(#paint13_linear_45_38)"/>
<path d="M520.758 479.266H403.573V198.622C403.573 186.096 412.527 175.938 423.576 175.938H500.758C511.803 175.938 520.761 186.093 520.761 198.622V479.266H520.758Z" fill="url(#paint14_linear_45_38)"/>
<g opacity="0.61">
<path d="M413.245 231.161C412.836 231.161 412.503 230.783 412.503 230.319V207.295C412.503 195.178 421.194 185.323 431.879 185.323H462.691C463.1 185.323 463.433 185.701 463.433 186.165C463.433 186.629 463.1 187.007 462.691 187.007H431.879C422.015 187.007 413.988 196.106 413.988 207.295V230.319C413.988 230.783 413.655 231.161 413.245 231.161Z" fill="white"/>
<path d="M413.245 255.576C412.836 255.576 412.503 255.198 412.503 254.734V245.353C412.503 244.889 412.836 244.511 413.245 244.511C413.655 244.511 413.988 244.889 413.988 245.353V254.734C413.988 255.198 413.655 255.576 413.245 255.576Z" fill="white"/>
</g>
<path d="M426.827 494.07H329.045V259.899C329.045 249.445 336.518 240.971 345.736 240.971H410.136C419.355 240.971 426.827 249.445 426.827 259.899V494.07Z" fill="url(#paint15_linear_45_38)"/>
<path d="M398 494.07H300.218V259.899C300.218 249.445 307.691 240.971 316.909 240.971H381.309C390.527 240.971 398 249.445 398 259.899V494.07Z" fill="url(#paint16_linear_45_38)"/>
<path d="M308.291 287.05C307.948 287.05 307.673 286.737 307.673 286.349V267.136C307.673 257.026 314.924 248.803 323.839 248.803H349.552C349.894 248.803 350.17 249.116 350.17 249.504C350.17 249.892 349.894 250.205 349.552 250.205H323.839C315.609 250.205 308.912 257.799 308.912 267.132V286.345C308.912 286.737 308.633 287.05 308.291 287.05Z" fill="#BDD0FB"/>
<path d="M308.291 307.42C307.948 307.42 307.673 307.108 307.673 306.719V298.891C307.673 298.503 307.948 298.19 308.291 298.19C308.633 298.19 308.909 298.503 308.909 298.891V306.719C308.912 307.108 308.633 307.42 308.291 307.42Z" fill="#BDD0FB"/>
<path d="M332.061 494.07H232.773V312.176C232.773 301.723 240.245 293.249 249.464 293.249H315.373C324.591 293.249 332.064 301.723 332.064 312.176V494.07H332.061Z" fill="url(#paint17_linear_45_38)"/>
<path d="M306.839 494.07H207.552V312.176C207.552 301.723 215.024 293.249 224.242 293.249H290.152C299.37 293.249 306.842 301.723 306.842 312.176V494.07H306.839Z" fill="url(#paint18_linear_45_38)"/>
<g opacity="0.59">
<path d="M214.209 330.76C213.867 330.76 213.591 330.447 213.591 330.059V315.812C213.591 308.214 219.042 302.036 225.739 302.036H244.806C245.149 302.036 245.424 302.348 245.424 302.737C245.424 303.125 245.149 303.438 244.806 303.438H225.739C219.724 303.438 214.827 308.987 214.827 315.812V330.059C214.827 330.447 214.552 330.76 214.209 330.76Z" fill="white"/>
<path d="M214.209 345.87C213.867 345.87 213.591 345.557 213.591 345.169V339.365C213.591 338.976 213.867 338.664 214.209 338.664C214.552 338.664 214.827 338.976 214.827 339.365V345.169C214.827 345.554 214.552 345.87 214.209 345.87Z" fill="white"/>
</g>
<path d="M231.267 494.07H145.712V371.155C145.712 360.701 153.185 352.227 162.403 352.227H214.579C223.797 352.227 231.27 360.701 231.27 371.155V494.07H231.267Z" fill="url(#paint19_linear_45_38)"/>
<path d="M206.046 494.07H120.491V371.155C120.491 360.701 127.964 352.227 137.182 352.227H189.358C198.576 352.227 206.049 360.701 206.049 371.155V494.07H206.046Z" fill="url(#paint20_linear_45_38)"/>
<path d="M127.555 392.635C127.212 392.635 126.936 392.323 126.936 391.934V375.124C126.936 366.23 133.318 358.997 141.158 358.997H163.655C163.997 358.997 164.273 359.309 164.273 359.698C164.273 360.086 163.997 360.399 163.655 360.399H141.158C133.997 360.399 128.173 367.003 128.173 375.124V391.934C128.173 392.319 127.897 392.635 127.555 392.635Z" fill="#BDD0FB"/>
<path d="M127.555 410.46C127.212 410.46 126.936 410.147 126.936 409.759V402.91C126.936 402.522 127.212 402.209 127.555 402.209C127.897 402.209 128.173 402.522 128.173 402.91V409.759C128.173 410.144 127.897 410.46 127.555 410.46Z" fill="#BDD0FB"/>
<path d="M149.261 494.07H63.7061V442.507C63.7061 432.054 71.1788 423.58 80.397 423.58H132.573C141.791 423.58 149.264 432.054 149.264 442.507V494.07H149.261Z" fill="url(#paint21_linear_45_38)"/>
<path d="M124.039 494.07H38.4849V442.507C38.4849 432.054 45.9576 423.58 55.1758 423.58H107.352C116.57 423.58 124.042 432.054 124.042 442.507V494.07H124.039Z" fill="url(#paint22_linear_45_38)"/>
<g opacity="0.51">
<path d="M44.5667 462.826C44.2242 462.826 43.9485 462.514 43.9485 462.125V445.315C43.9485 436.421 50.3303 429.188 58.1697 429.188H80.6667C81.0091 429.188 81.2849 429.501 81.2849 429.889C81.2849 430.277 81.0091 430.59 80.6667 430.59H58.1697C51.0091 430.59 45.1849 437.195 45.1849 445.315V462.125C45.1849 462.51 44.9091 462.826 44.5667 462.826Z" fill="white"/>
<path d="M44.5667 480.647C44.2242 480.647 43.9485 480.335 43.9485 479.946V473.098C43.9485 472.709 44.2242 472.397 44.5667 472.397C44.9091 472.397 45.1849 472.709 45.1849 473.098V479.946C45.1849 480.335 44.9091 480.647 44.5667 480.647Z" fill="white"/>
</g>
<path d="M253.321 100.909L244.639 123.554C251.864 134.547 258.894 140.035 265.412 142.038C265.382 134.338 268.321 127.386 270.609 123.149C258.785 118.245 253.321 100.909 253.321 100.909Z" fill="url(#paint23_linear_45_38)"/>
<path d="M296.667 114.42C285.876 124.743 277.242 125.901 270.609 123.149C268.321 127.382 265.385 134.338 265.412 142.038C286.13 148.413 301.648 119.489 301.648 119.489L296.667 114.42Z" fill="url(#paint24_linear_45_38)"/>
<path d="M297.836 117.795C297.836 117.795 293.655 112.015 297.579 106.221C297.579 106.221 298.791 103.994 300.861 106.534C300.861 106.534 305.103 100.428 306.779 102.245C308.455 104.06 312.842 108.506 310.167 115.042C307.464 121.647 299.842 120.383 297.836 117.795Z" fill="url(#paint25_linear_45_38)"/>
<path d="M302.245 113.427C301.752 113.52 301.203 113.52 300.682 113.29C300.173 113.066 299.494 112.53 299.152 111.242C299.039 110.816 299.252 110.369 299.624 110.238C299.994 110.111 300.394 110.352 300.509 110.774C300.724 111.578 301.076 111.737 301.191 111.785C301.609 111.97 302.164 111.833 302.6 111.654L300.921 107.922C300.742 107.527 300.882 107.042 301.23 106.84C301.579 106.637 302.006 106.795 302.185 107.19L304.197 111.664C304.367 112.039 304.248 112.503 303.93 112.719C303.815 112.802 303.109 113.262 302.245 113.427Z" fill="url(#paint26_linear_45_38)"/>
<path d="M147.379 283.83C146.442 284.74 146.133 286.338 146.597 287.757C148.427 293.345 153.897 307.984 163.033 315.527C163.636 316.025 164.379 315.829 164.752 315.207C162.43 313.248 159.391 309.726 155.527 303.499C149.585 293.922 147.821 287.654 147.379 283.83Z" fill="#91B3FA"/>
<path d="M157.418 281.696C157.418 281.696 151.93 279.551 147.409 283.795C147.397 283.806 147.388 283.819 147.379 283.83C147.821 287.658 149.585 293.922 155.527 303.496C159.394 309.726 162.433 313.248 164.752 315.204C164.87 315.008 164.952 314.767 164.982 314.492C165.594 308.441 166.312 291.816 157.418 281.696Z" fill="url(#paint27_linear_45_38)"/>
<path d="M164.736 280.672L160.912 286.496C160.236 287.527 159.021 287.902 157.985 287.379C157.082 286.922 156.03 286.094 155.188 284.582C154.682 283.675 154.688 282.517 155.2 281.613L158.909 275.07C159.794 273.51 161.761 273.366 162.815 274.785L164.642 277.242C165.373 278.228 165.409 279.644 164.736 280.672Z" fill="url(#paint28_linear_45_38)"/>
<path d="M303.352 226.886C304.327 227.741 305.77 227.759 306.9 226.954C311.352 223.786 322.876 214.735 327.53 203.055C327.836 202.285 327.518 201.501 326.903 201.213C325.685 204.189 323.264 208.278 318.67 213.838C311.618 222.381 306.567 225.618 303.352 226.886Z" fill="#91B3FA"/>
<path d="M299.47 216.171C299.47 216.171 298.733 222.7 303.318 226.858C303.33 226.868 303.342 226.875 303.355 226.886C306.57 225.618 311.618 222.384 318.676 213.838C323.267 208.278 325.691 204.188 326.909 201.213C326.715 201.123 326.491 201.079 326.248 201.103C320.897 201.656 306.397 204.24 299.47 216.171Z" fill="url(#paint29_linear_45_38)"/>
<path d="M299.815 208.23L305.273 212.027C306.239 212.697 306.679 214.037 306.309 215.254C305.988 216.312 305.354 217.577 304.103 218.662C303.351 219.315 302.333 219.412 301.494 218.913L295.418 215.309C293.967 214.449 293.667 212.24 294.818 210.924L296.812 208.642C297.609 207.731 298.851 207.563 299.815 208.23Z" fill="url(#paint30_linear_45_38)"/>
<path d="M197.218 178.808C197.218 178.808 193.239 216.477 189.57 233.398C189.57 233.398 179.336 237.215 173.473 242.758C167.609 248.301 157.142 274.84 157.142 274.84C157.142 274.84 161.964 282.015 166.555 282.383L201.776 243.476L227.376 195.47L222.985 176.302L197.218 178.808Z" fill="url(#paint31_linear_45_38)"/>
<path d="M197.358 175.77L196.094 186.117C196.094 186.117 202.397 211.415 230.406 201.615C258.415 191.814 261.23 185.825 261.23 185.825C261.23 185.825 261.179 202.759 295.439 216.583C295.439 216.583 299.597 211.601 299.961 206.773L271.93 169.918C268.079 165.117 265.036 164.237 259.606 166.289C247.6 170.825 224.933 178.069 221.339 178.058L197.358 175.77Z" fill="url(#paint32_linear_45_38)"/>
<path d="M208.912 98.4069C200.633 100.479 188.1 107.493 180.894 118.015C184 120.795 188.821 125.362 192.609 130.059C194.873 126.688 198.376 123.571 203.579 121.015C201.83 141.801 199.088 161.811 194.936 180.715C194.676 181.897 195.348 183.082 196.406 183.285C201.942 184.357 218.1 186.343 229.3 176.058L250.139 126.29C252.382 120.936 253.506 115.073 253.43 109.149L253.324 100.909C253.321 100.909 226.951 93.895 208.912 98.4069Z" fill="url(#paint33_linear_45_38)"/>
<path d="M203.93 168.663C202.297 165.904 197.8 163.894 195.676 163.066C193.394 159.426 183.991 142.898 192.606 130.059C188.821 125.362 183.997 120.798 180.891 118.015C172.576 130.159 171.361 146.976 191.955 166.279C191.836 172.021 195.867 177.914 197.664 178.505C198.494 178.783 206.103 172.33 203.93 168.663Z" fill="url(#paint34_linear_45_38)"/>
<path d="M205.179 120.812C204.858 120.874 204.53 120.675 204.403 120.317C204.258 119.905 204.436 119.437 204.8 119.273L212.152 115.953C212.515 115.788 212.927 115.991 213.073 116.403C213.218 116.816 213.039 117.283 212.676 117.448L205.324 120.767C205.276 120.785 205.227 120.802 205.179 120.812Z" fill="url(#paint35_linear_45_38)"/>
<path d="M225.691 83.0498L220.879 100.321C220.585 101.376 220.888 102.524 221.651 103.211C223.712 105.073 228.336 107.853 235.091 103.943C235.836 103.513 236.285 102.62 236.267 101.671L235.994 86.8676L225.691 83.0498Z" fill="url(#paint36_linear_45_38)"/>
<path d="M240.433 65.4763C240.433 65.4763 244.03 76.8781 243.97 82.7165C243.909 88.5549 244.791 92.4105 238.794 93.1287C232.797 93.8469 228 90.1184 225.636 84.1185C225.636 84.1185 221.927 74.8713 223.094 71.2871C224.261 67.703 240.433 65.4763 240.433 65.4763Z" fill="url(#paint37_linear_45_38)"/>
<path d="M227.909 80.1083L228.258 79.964C228.7 79.7818 228.918 79.2148 228.73 78.7269C228.003 76.83 226.621 72.5105 228.785 71.6892C231.573 70.6342 242.47 68.9676 245.045 64.8199C247.521 60.8337 245.864 55.3184 242.988 53.5624C242.794 53.4455 242.558 53.5074 242.442 53.7205L242.164 54.2325C241.973 54.583 241.503 54.4902 241.424 54.0881C241.352 53.7033 240.909 53.5933 240.706 53.9163C239.915 55.1569 237.867 57.1053 232.658 57.7925C225.252 58.765 220.218 61.7547 219.758 67.4762C219.727 67.8405 219.376 68.0157 219.112 67.8061C218.594 67.3903 217.739 67.1498 216.521 68.1635C214.4 69.9263 214.927 74.9572 219.088 79.3798C219.285 79.5894 219.261 79.9605 219.024 80.1117C218.191 80.6409 216.918 81.9502 219.891 84.0567C222.967 86.2319 225.358 86.2559 226.285 86.1563C226.515 86.1322 226.679 85.8917 226.642 85.6305L225.964 80.5172C225.924 80.2286 226.133 79.9708 226.391 79.9915L227.909 80.1083Z" fill="url(#paint38_linear_45_38)"/>
<path d="M228.03 81.1838C228.03 81.1838 226.827 73.9847 223.912 75.7544C220.997 77.5241 224.894 83.7955 227.127 84.2319L228.03 81.1838Z" fill="url(#paint39_linear_45_38)"/>
<path d="M59.1333 412.597C58.9909 412.597 58.8485 412.566 58.7091 412.504C58.1121 412.239 57.8152 411.473 58.0515 410.793C58.0758 410.721 58.6727 408.999 59.8939 405.82C60.1515 405.154 60.8364 404.848 61.4243 405.136C62.0121 405.428 62.2818 406.205 62.0273 406.872C60.8273 409.999 60.2242 411.738 60.2182 411.755C60.0364 412.281 59.597 412.597 59.1333 412.597ZM62.8667 402.82C62.7061 402.82 62.5424 402.783 62.3849 402.7C61.8 402.398 61.5424 401.614 61.8091 400.951C62.4394 399.381 63.1061 397.759 63.7879 396.13C64.0636 395.47 64.7576 395.192 65.3364 395.501C65.9182 395.814 66.1636 396.601 65.8909 397.257C65.2152 398.875 64.5545 400.487 63.9273 402.044C63.7303 402.535 63.3091 402.82 62.8667 402.82ZM66.8636 393.247C66.6909 393.247 66.5182 393.202 66.3546 393.113C65.7788 392.793 65.5394 392.003 65.8212 391.346C66.497 389.779 67.197 388.181 67.903 386.594C68.1909 385.944 68.8909 385.683 69.4667 386.01C70.0394 386.336 70.2697 387.13 69.9818 387.783C69.2818 389.36 68.5849 390.951 67.9121 392.508C67.7061 392.975 67.2939 393.247 66.8636 393.247ZM71.0606 383.8C70.8788 383.8 70.697 383.752 70.5273 383.652C69.9576 383.316 69.7333 382.522 70.0303 381.872C70.7394 380.322 71.4697 378.745 72.203 377.178C72.5061 376.536 73.2091 376.292 73.7758 376.632C74.3424 376.975 74.5576 377.773 74.2576 378.415C73.5273 379.972 72.8 381.542 72.097 383.082C71.8879 383.542 71.4818 383.8 71.0606 383.8ZM75.4394 374.467C75.2515 374.467 75.0606 374.415 74.8818 374.305C74.3182 373.955 74.1091 373.154 74.4182 372.515C75.1576 370.982 75.9152 369.422 76.6758 367.876C76.9879 367.24 77.697 367.013 78.2576 367.367C78.8182 367.721 79.0182 368.525 78.7061 369.161C77.9485 370.697 77.1939 372.25 76.4576 373.776C76.2515 374.219 75.8515 374.467 75.4394 374.467ZM79.9849 365.244C79.7879 365.244 79.5909 365.189 79.4091 365.068C78.8515 364.708 78.6576 363.9 78.9758 363.268C79.7424 361.749 80.5273 360.209 81.3152 358.684C81.6394 358.055 82.3515 357.845 82.9061 358.213C83.4606 358.581 83.6455 359.388 83.3212 360.017C82.5394 361.532 81.7545 363.068 80.9939 364.577C80.7818 365.007 80.3909 365.244 79.9849 365.244ZM84.694 356.127C84.4909 356.127 84.2849 356.065 84.097 355.938C83.5455 355.563 83.3667 354.752 83.697 354.127C84.4939 352.618 85.3061 351.096 86.1152 349.598C86.4515 348.976 87.1667 348.78 87.7152 349.162C88.2636 349.543 88.4364 350.354 88.1 350.976C87.2939 352.467 86.4849 353.983 85.6939 355.484C85.4758 355.897 85.0879 356.127 84.694 356.127ZM89.5576 347.117C89.3455 347.117 89.1333 347.052 88.9424 346.918C88.397 346.533 88.2333 345.718 88.5727 345.1C89.397 343.605 90.2364 342.1 91.0697 340.626C91.4152 340.01 92.1364 339.832 92.6758 340.224C93.2182 340.615 93.3758 341.433 93.0303 342.045C92.203 343.512 91.3667 345.01 90.5455 346.498C90.3243 346.897 89.9455 347.117 89.5576 347.117ZM94.5758 338.217C94.3576 338.217 94.1364 338.148 93.9394 338.004C93.4 337.605 93.2515 336.787 93.6 336.179C94.4515 334.698 95.3182 333.213 96.1727 331.76C96.5303 331.155 97.2515 330.99 97.7849 331.396C98.3182 331.801 98.4636 332.619 98.1061 333.224C97.2576 334.667 96.394 336.148 95.5485 337.619C95.3273 338.007 94.9546 338.217 94.5758 338.217ZM99.7424 329.43C99.5182 329.43 99.2879 329.354 99.0879 329.2C98.5576 328.791 98.4182 327.969 98.7818 327.368C99.6515 325.918 100.542 324.451 101.427 323.007C101.794 322.409 102.518 322.262 103.045 322.677C103.573 323.093 103.703 323.915 103.336 324.512C102.455 325.949 101.57 327.409 100.703 328.853C100.479 329.227 100.115 329.43 99.7424 329.43ZM105.061 320.76C104.827 320.76 104.594 320.681 104.388 320.516C103.864 320.093 103.739 319.272 104.112 318.678C105.003 317.251 105.918 315.805 106.833 314.379C107.209 313.788 107.936 313.657 108.458 314.083C108.979 314.509 109.094 315.337 108.718 315.925C107.809 317.348 106.897 318.787 106.009 320.203C105.782 320.568 105.424 320.76 105.061 320.76ZM110.524 312.21C110.285 312.21 110.042 312.128 109.833 311.953C109.318 311.52 109.209 310.691 109.591 310.107C110.512 308.695 111.455 307.269 112.385 305.87C112.773 305.289 113.503 305.173 114.015 305.613C114.527 306.052 114.63 306.881 114.242 307.461C113.315 308.853 112.379 310.272 111.461 311.678C111.233 312.025 110.882 312.21 110.524 312.21ZM116.139 303.784C115.891 303.784 115.642 303.695 115.43 303.509C114.921 303.066 114.827 302.235 115.218 301.661C116.161 300.272 117.127 298.87 118.088 297.485C118.485 296.912 119.218 296.815 119.721 297.266C120.227 297.716 120.312 298.547 119.915 299.118C118.961 300.492 118 301.891 117.061 303.272C116.833 303.609 116.488 303.784 116.139 303.784ZM121.9 295.492C121.645 295.492 121.388 295.396 121.173 295.2C120.673 294.743 120.594 293.912 120.997 293.345C121.967 291.977 122.958 290.596 123.939 289.238C124.349 288.675 125.082 288.592 125.576 289.056C126.073 289.52 126.145 290.348 125.736 290.912C124.758 292.262 123.773 293.637 122.809 294.998C122.579 295.324 122.242 295.492 121.9 295.492ZM127.812 287.334C127.548 287.334 127.282 287.235 127.064 287.025C126.573 286.558 126.506 285.726 126.921 285.166C127.915 283.823 128.93 282.465 129.939 281.128C130.358 280.575 131.091 280.51 131.579 280.984C132.067 281.458 132.124 282.29 131.706 282.843C130.703 284.173 129.691 285.524 128.703 286.86C128.473 287.173 128.142 287.334 127.812 287.334ZM133.87 279.314C133.597 279.314 133.324 279.207 133.103 278.988C132.618 278.506 132.57 277.675 132.994 277.125C134.015 275.802 135.055 274.469 136.088 273.159C136.515 272.617 137.252 272.568 137.73 273.056C138.209 273.541 138.252 274.376 137.821 274.919C136.797 276.218 135.761 277.544 134.745 278.86C134.515 279.163 134.191 279.314 133.87 279.314ZM140.073 271.445C139.794 271.445 139.512 271.331 139.288 271.101C138.812 270.61 138.782 269.775 139.215 269.239C140.261 267.943 141.324 266.634 142.382 265.352C142.821 264.819 143.558 264.792 144.027 265.287C144.497 265.785 144.521 266.62 144.085 267.153C143.033 268.431 141.973 269.73 140.936 271.019C140.703 271.3 140.391 271.445 140.073 271.445ZM146.427 263.73C146.139 263.73 145.849 263.61 145.624 263.366C145.161 262.864 145.142 262.029 145.585 261.5C146.655 260.228 147.745 258.947 148.827 257.692C149.276 257.17 150.012 257.16 150.473 257.668C150.933 258.177 150.942 259.012 150.494 259.534C149.418 260.785 148.333 262.057 147.27 263.321C147.039 263.593 146.733 263.73 146.427 263.73ZM152.93 256.177C152.633 256.177 152.336 256.05 152.109 255.792C151.655 255.277 151.655 254.442 152.106 253.926C153.203 252.679 154.318 251.428 155.421 250.201C155.879 249.693 156.615 249.699 157.067 250.222C157.515 250.741 157.509 251.579 157.048 252.088C155.952 253.308 154.842 254.552 153.752 255.792C153.524 256.046 153.227 256.177 152.93 256.177ZM159.579 248.789C159.273 248.789 158.967 248.651 158.739 248.383C158.294 247.858 158.312 247.022 158.776 246.517C159.894 245.301 161.036 244.078 162.167 242.878C162.636 242.38 163.373 242.407 163.812 242.94C164.252 243.473 164.227 244.308 163.758 244.806C162.633 245.998 161.5 247.215 160.388 248.425C160.158 248.665 159.867 248.789 159.579 248.789ZM166.376 241.576C166.061 241.576 165.745 241.432 165.518 241.146C165.085 240.61 165.118 239.775 165.591 239.284C166.733 238.102 167.897 236.906 169.055 235.734C169.533 235.25 170.27 235.298 170.697 235.841C171.124 236.384 171.082 237.219 170.603 237.703C169.455 238.868 168.294 240.054 167.161 241.232C166.936 241.462 166.655 241.576 166.376 241.576ZM173.318 234.549C172.994 234.549 172.67 234.394 172.439 234.095C172.018 233.545 172.067 232.713 172.552 232.232C173.727 231.071 174.918 229.909 176.088 228.779C176.579 228.308 177.312 228.373 177.727 228.93C178.142 229.483 178.085 230.318 177.594 230.789C176.43 231.913 175.248 233.067 174.079 234.222C173.864 234.442 173.591 234.549 173.318 234.549ZM180.409 227.71C180.076 227.71 179.742 227.549 179.512 227.232C179.103 226.672 179.17 225.841 179.664 225.373C180.864 224.243 182.079 223.116 183.273 222.02C183.773 221.562 184.506 221.648 184.909 222.215C185.312 222.782 185.236 223.614 184.736 224.071C183.549 225.16 182.342 226.284 181.148 227.404C180.933 227.61 180.67 227.71 180.409 227.71ZM187.642 221.068C187.3 221.068 186.958 220.896 186.727 220.566C186.33 219.996 186.415 219.164 186.921 218.714C188.136 217.628 189.376 216.532 190.603 215.459C191.112 215.016 191.842 215.123 192.233 215.7C192.624 216.277 192.53 217.106 192.021 217.549C190.8 218.614 189.57 219.7 188.361 220.782C188.152 220.978 187.897 221.068 187.642 221.068ZM195.021 214.635C194.667 214.635 194.318 214.453 194.088 214.106C193.703 213.521 193.806 212.697 194.321 212.26C195.558 211.209 196.821 210.15 198.076 209.113C198.594 208.683 199.321 208.814 199.7 209.401C200.079 209.989 199.964 210.814 199.445 211.243C198.2 212.274 196.945 213.326 195.715 214.37C195.509 214.549 195.264 214.635 195.021 214.635ZM202.539 208.418C202.176 208.418 201.815 208.226 201.591 207.862C201.218 207.267 201.342 206.442 201.867 206.023C203.13 205.006 204.418 203.985 205.691 202.989C206.221 202.577 206.945 202.724 207.309 203.326C207.673 203.924 207.542 204.748 207.012 205.161C205.748 206.15 204.47 207.164 203.212 208.178C203.009 208.339 202.773 208.418 202.539 208.418ZM210.2 202.422C209.824 202.422 209.458 202.216 209.233 201.838C208.876 201.233 209.018 200.412 209.552 200.006C210.842 199.023 212.152 198.041 213.445 197.085C213.985 196.687 214.703 196.858 215.055 197.47C215.406 198.082 215.255 198.896 214.715 199.295C213.43 200.243 212.13 201.219 210.848 202.195C210.648 202.35 210.421 202.422 210.2 202.422ZM217.994 196.659C217.609 196.659 217.23 196.443 217.009 196.044C216.667 195.429 216.827 194.615 217.37 194.223C218.676 193.285 220.009 192.343 221.33 191.419C221.879 191.037 222.594 191.23 222.93 191.852C223.267 192.474 223.097 193.285 222.549 193.666C221.236 194.58 219.912 195.518 218.615 196.45C218.421 196.59 218.206 196.659 217.994 196.659ZM225.921 191.133C225.524 191.133 225.139 190.903 224.921 190.491C224.591 189.865 224.773 189.054 225.324 188.683C226.664 187.78 228.018 186.876 229.352 186.003C229.909 185.639 230.618 185.855 230.939 186.484C231.261 187.116 231.07 187.92 230.515 188.285C229.191 189.151 227.845 190.048 226.515 190.944C226.33 191.072 226.124 191.133 225.921 191.133ZM233.979 185.855C233.57 185.855 233.176 185.611 232.964 185.178C232.648 184.543 232.852 183.738 233.412 183.384C234.764 182.525 236.139 181.666 237.503 180.831C238.07 180.484 238.773 180.721 239.079 181.364C239.385 182.003 239.176 182.804 238.609 183.151C237.258 183.982 235.891 184.835 234.548 185.687C234.367 185.8 234.17 185.855 233.979 185.855ZM242.161 180.831C241.742 180.831 241.336 180.574 241.13 180.123C240.833 179.477 241.052 178.68 241.621 178.343C242.994 177.529 244.391 176.711 245.773 175.921C246.345 175.591 247.045 175.852 247.336 176.501C247.627 177.151 247.397 177.945 246.824 178.275C245.452 179.062 244.067 179.873 242.703 180.68C242.527 180.783 242.342 180.831 242.161 180.831ZM250.464 176.068C250.033 176.068 249.618 175.797 249.418 175.326C249.136 174.67 249.376 173.883 249.955 173.563C251.349 172.794 252.764 172.02 254.164 171.275C254.745 170.965 255.439 171.247 255.712 171.907C255.985 172.567 255.736 173.354 255.155 173.663C253.764 174.405 252.358 175.172 250.976 175.938C250.809 176.024 250.633 176.068 250.464 176.068ZM258.879 171.57C258.436 171.57 258.012 171.282 257.818 170.797C257.552 170.134 257.812 169.35 258.397 169.051C259.806 168.326 261.239 167.601 262.664 166.897C263.252 166.605 263.939 166.911 264.194 167.577C264.452 168.244 264.182 169.024 263.594 169.313C262.182 170.01 260.758 170.732 259.358 171.45C259.203 171.532 259.039 171.57 258.879 171.57ZM267.406 167.35C266.952 167.35 266.521 167.048 266.333 166.543C266.085 165.869 266.364 165.096 266.955 164.814C268.379 164.137 269.833 163.457 271.273 162.801C271.87 162.529 272.545 162.856 272.788 163.533C273.027 164.21 272.739 164.976 272.142 165.251C270.712 165.904 269.27 166.577 267.855 167.251C267.709 167.316 267.558 167.35 267.406 167.35ZM276.036 163.405C275.57 163.405 275.13 163.086 274.952 162.56C274.721 161.88 275.018 161.117 275.618 160.856C277.061 160.223 278.53 159.595 279.985 158.983C280.588 158.729 281.258 159.079 281.479 159.763C281.703 160.447 281.394 161.206 280.791 161.457C279.345 162.062 277.888 162.687 276.455 163.316C276.318 163.378 276.176 163.405 276.036 163.405ZM284.761 159.749C284.282 159.749 283.833 159.412 283.664 158.869C283.449 158.182 283.767 157.43 284.373 157.186C285.83 156.601 287.315 156.021 288.785 155.457C289.394 155.223 290.055 155.595 290.258 156.285C290.464 156.976 290.136 157.725 289.527 157.955C288.067 158.516 286.591 159.093 285.145 159.67C285.021 159.725 284.891 159.749 284.761 159.749ZM293.576 156.378C293.085 156.378 292.627 156.021 292.47 155.461C292.273 154.766 292.609 154.024 293.221 153.801C294.694 153.265 296.191 152.732 297.676 152.22C298.291 152.007 298.939 152.399 299.127 153.096C299.315 153.794 298.97 154.529 298.355 154.742C296.882 155.251 295.391 155.78 293.93 156.313C293.815 156.357 293.694 156.378 293.576 156.378ZM302.476 153.299C301.97 153.299 301.506 152.925 301.358 152.347C301.179 151.646 301.533 150.914 302.152 150.715C303.633 150.227 305.145 149.746 306.645 149.279C307.267 149.086 307.906 149.499 308.076 150.203C308.245 150.904 307.882 151.632 307.261 151.825C305.773 152.285 304.273 152.766 302.8 153.251C302.691 153.282 302.582 153.299 302.476 153.299ZM311.445 150.512C310.927 150.512 310.455 150.117 310.321 149.523C310.161 148.818 310.533 148.096 311.158 147.914C312.652 147.478 314.176 147.045 315.685 146.626C316.309 146.454 316.939 146.887 317.091 147.595C317.242 148.303 316.861 149.017 316.236 149.189C314.736 149.602 313.224 150.031 311.739 150.468C311.639 150.498 311.542 150.512 311.445 150.512ZM320.488 148.021C319.958 148.021 319.479 147.605 319.355 146.993C319.212 146.282 319.603 145.578 320.23 145.413C321.739 145.024 323.273 144.639 324.788 144.275C325.418 144.124 326.033 144.578 326.167 145.292C326.3 146.004 325.9 146.705 325.27 146.856C323.764 147.22 322.239 147.598 320.742 147.987C320.658 148.011 320.573 148.021 320.488 148.021ZM472.867 147.313C472.794 147.313 472.718 147.306 472.642 147.289C471.136 146.956 469.603 146.626 468.085 146.31C467.455 146.179 467.036 145.488 467.152 144.774C467.267 144.059 467.876 143.585 468.506 143.715C470.03 144.035 471.57 144.365 473.088 144.701C473.718 144.842 474.13 145.533 474.006 146.248C473.9 146.877 473.412 147.313 472.867 147.313ZM329.585 145.825C329.039 145.825 328.555 145.389 328.445 144.763C328.321 144.048 328.73 143.354 329.361 143.213C330.882 142.873 332.424 142.54 333.945 142.224C334.579 142.093 335.185 142.567 335.3 143.282C335.415 143.997 334.997 144.688 334.367 144.818C332.858 145.131 331.324 145.464 329.815 145.801C329.736 145.818 329.661 145.825 329.585 145.825ZM463.721 145.402C463.655 145.402 463.588 145.395 463.521 145.382C462.009 145.083 460.47 144.791 458.949 144.512C458.315 144.396 457.885 143.719 457.988 143C458.091 142.282 458.688 141.791 459.321 141.911C460.852 142.193 462.397 142.488 463.918 142.787C464.552 142.911 464.976 143.595 464.867 144.313C464.767 144.949 464.276 145.402 463.721 145.402ZM338.733 143.925C338.176 143.925 337.682 143.468 337.588 142.825C337.482 142.107 337.909 141.426 338.542 141.306C340.064 141.014 341.615 140.732 343.152 140.464C343.785 140.354 344.382 140.846 344.479 141.567C344.576 142.289 344.142 142.963 343.506 143.073C341.982 143.341 340.442 143.622 338.93 143.911C338.864 143.918 338.8 143.925 338.733 143.925ZM454.539 143.712C454.482 143.712 454.424 143.708 454.364 143.698C452.839 143.437 451.297 143.182 449.773 142.938C449.136 142.839 448.694 142.172 448.782 141.451C448.87 140.729 449.458 140.227 450.094 140.327C451.624 140.571 453.176 140.825 454.709 141.09C455.345 141.2 455.782 141.87 455.685 142.591C455.603 143.244 455.106 143.712 454.539 143.712ZM347.927 142.317C347.358 142.317 346.858 141.839 346.776 141.179C346.688 140.457 347.13 139.791 347.767 139.691C349.303 139.447 350.861 139.213 352.394 138.994C353.033 138.904 353.612 139.416 353.694 140.138C353.773 140.859 353.321 141.519 352.685 141.612C351.161 141.829 349.615 142.062 348.091 142.303C348.036 142.313 347.982 142.317 347.927 142.317ZM445.33 142.248C445.282 142.248 445.23 142.244 445.182 142.237C443.648 142.014 442.1 141.798 440.579 141.595C439.939 141.509 439.485 140.856 439.558 140.131C439.633 139.406 440.209 138.887 440.849 138.973C442.379 139.176 443.936 139.392 445.479 139.619C446.115 139.712 446.567 140.372 446.485 141.097C446.406 141.763 445.906 142.248 445.33 142.248ZM436.091 141.021C436.052 141.021 436.009 141.018 435.967 141.014C434.439 140.832 432.885 140.657 431.352 140.492C430.712 140.423 430.242 139.78 430.303 139.055C430.364 138.33 430.93 137.798 431.57 137.866C433.112 138.031 434.676 138.207 436.212 138.392C436.852 138.468 437.315 139.117 437.245 139.842C437.182 140.516 436.679 141.021 436.091 141.021ZM357.158 141C356.573 141 356.07 140.502 356.003 139.829C355.93 139.104 356.391 138.451 357.03 138.372C358.561 138.179 360.121 137.994 361.673 137.822C362.312 137.753 362.882 138.282 362.942 139.007C363.006 139.732 362.536 140.378 361.897 140.447C360.358 140.619 358.806 140.801 357.288 140.994C357.245 140.997 357.2 141 357.158 141ZM426.827 140.035C426.794 140.035 426.764 140.035 426.73 140.031C425.191 139.887 423.633 139.753 422.106 139.633C421.467 139.581 420.982 138.952 421.027 138.224C421.073 137.499 421.63 136.952 422.27 137C423.809 137.124 425.373 137.258 426.921 137.403C427.561 137.461 428.039 138.1 427.985 138.825C427.936 139.512 427.427 140.035 426.827 140.035ZM366.418 139.973C365.821 139.973 365.312 139.454 365.261 138.763C365.206 138.038 365.682 137.399 366.321 137.337C367.864 137.189 369.43 137.052 370.976 136.928C371.618 136.877 372.173 137.423 372.218 138.152C372.264 138.88 371.782 139.509 371.139 139.561C369.603 139.684 368.049 139.818 366.518 139.966C366.482 139.969 366.448 139.973 366.418 139.973ZM417.549 139.296C417.527 139.296 417.503 139.296 417.479 139.293C415.936 139.189 414.379 139.1 412.849 139.021C412.206 138.987 411.709 138.372 411.739 137.643C411.77 136.915 412.318 136.354 412.955 136.385C414.494 136.464 416.064 136.557 417.615 136.66C418.258 136.701 418.745 137.327 418.709 138.052C418.673 138.756 418.158 139.296 417.549 139.296ZM375.697 139.231C375.085 139.231 374.573 138.688 374.536 137.987C374.5 137.258 374.991 136.636 375.63 136.595C377.179 136.495 378.749 136.406 380.291 136.33C380.93 136.299 381.476 136.863 381.503 137.592C381.53 138.32 381.033 138.935 380.391 138.966C378.858 139.042 377.297 139.131 375.761 139.231C375.742 139.231 375.721 139.231 375.697 139.231ZM408.252 138.815C408.239 138.815 408.224 138.815 408.212 138.815C406.67 138.756 405.109 138.708 403.576 138.674C402.933 138.66 402.424 138.055 402.436 137.327C402.448 136.598 402.985 136.014 403.624 136.035C405.167 136.073 406.736 136.121 408.291 136.179C408.933 136.203 409.436 136.815 409.415 137.54C409.394 138.255 408.876 138.815 408.252 138.815ZM384.994 138.77C384.367 138.77 383.852 138.207 383.83 137.492C383.812 136.763 384.315 136.155 384.958 136.134C386.5 136.083 388.07 136.038 389.624 136.007C390.276 135.987 390.797 136.574 390.809 137.303C390.821 138.031 390.309 138.633 389.667 138.646C388.121 138.677 386.564 138.719 385.03 138.774C385.018 138.77 385.006 138.77 384.994 138.77ZM398.949 138.691C398.945 138.691 398.942 138.691 398.939 138.691C397.388 138.691 395.845 138.691 394.306 138.691C394.303 138.691 394.303 138.691 394.3 138.691C393.661 138.691 393.139 138.052 393.136 137.323C393.133 136.595 393.652 135.976 394.294 135.973C395.842 135.966 397.397 135.956 398.958 135.97C399.6 135.976 400.115 136.612 400.112 137.341C400.106 138.066 399.588 138.691 398.949 138.691Z" fill="white"/>
<path d="M468.661 155.976C468.27 155.976 467.888 155.753 467.667 155.347C467.33 154.725 467.503 153.914 468.048 153.533L476.779 147.458C474.464 143.478 471.842 139.286 471.058 138.513C470.655 138.358 470.339 137.956 470.276 137.447C470.185 136.726 470.627 136.059 471.264 135.956C472.036 135.832 472.83 135.705 479.382 147.152C479.552 147.451 479.609 147.815 479.539 148.162C479.47 148.509 479.282 148.808 479.012 148.997L469.264 155.78C469.079 155.911 468.87 155.976 468.661 155.976Z" fill="white"/>
<path d="M484.064 360.474H480.518V403.948H484.064V360.474Z" fill="#7D97F4"/>
<path d="M497.815 404.786H466.767V403.68C466.767 402.845 467.364 402.168 468.1 402.168H496.382C497.176 402.168 497.818 402.896 497.818 403.797V404.786H497.815Z" fill="#7D97F4"/>
<path d="M503.688 358.87C503.688 361.395 501.864 363.464 499.636 363.464H466.252C464.024 363.464 462.2 361.395 462.2 358.87V354.715C462.2 352.189 464.024 350.121 466.252 350.121H499.636C501.864 350.121 503.688 352.189 503.688 354.715V358.87Z" fill="#7D97F4"/>
<path d="M450.867 390.745C450.867 390.745 439.406 396.343 440.064 402.202C440.064 402.202 451.909 399.625 454.03 395.786C456.151 391.948 454.982 389.721 454.982 389.721L450.867 390.745Z" fill="url(#paint40_linear_45_38)"/>
<path d="M453.673 384.347L454.255 390.051C454.342 390.91 453.921 391.762 453.203 392.055C452.842 392.202 452.37 392.302 451.752 392.305C450.876 392.309 450.103 391.659 449.87 390.704L448.742 386.089L453.673 384.347Z" fill="url(#paint41_linear_45_38)"/>
<path d="M478.709 340.609C478.709 340.609 457.63 339.502 447.139 346.44C436.652 353.378 447.673 386.67 447.673 386.67C447.673 386.67 450.412 387.336 454.358 384.948C454.358 384.948 448.727 360.577 458.506 356.337C469.5 351.571 480.873 352.729 480.873 352.729L478.767 341.365L478.709 340.609Z" fill="url(#paint42_linear_45_38)"/>
<path d="M442.367 399.632C444.764 399.037 451.87 395.697 452.952 395.742C454.03 395.786 455.561 397.621 455.561 397.621C455.561 397.621 455.824 398.625 455.052 400.065C453.221 401.683 449.276 404.656 444.688 404.982C441.315 405.223 439.285 403.7 438.124 402.223C439.139 401.099 440.77 400.027 442.367 399.632Z" fill="url(#paint43_linear_45_38)"/>
<path d="M444.688 404.979C449.276 404.652 453.218 401.68 455.052 400.061C454.53 401.034 453.536 402.206 451.667 403.405C447.03 406.374 439.37 405.941 437.852 405.274C436.633 404.738 437.012 403.45 438.121 402.223C439.282 403.697 441.312 405.219 444.688 404.979Z" fill="url(#paint44_linear_45_38)"/>
<path d="M458.076 394.635C457.918 395.309 456.239 397.329 455.27 398.456C454.809 398.993 454.139 399.223 453.494 399.061C453.085 398.958 452.621 398.8 452.224 398.556C451.624 398.185 451.415 397.322 451.745 396.645L454.2 391.584L458.076 394.635Z" fill="url(#paint45_linear_45_38)"/>
<path d="M499.6 338.602C499.6 338.602 501.439 353.406 496.121 356.43C490.8 359.454 479.133 361.437 475.112 369.113C471.094 376.79 463.876 391.859 457.306 396.189C457.306 396.189 453.555 394.804 452.458 392.714C452.458 392.714 460.255 369.471 463.506 363.821C466.324 358.928 470.442 351.88 476.294 348.832C477.97 347.959 478.1 345.945 477.806 343.88L477.27 340.121L499.6 338.602Z" fill="url(#paint46_linear_45_38)"/>
<path d="M450.291 321.822C457.748 324.238 461.088 300.434 461.058 299.853L472.494 315.015C472.494 315.015 465.679 328.612 455.391 330.059C452.788 330.427 450.573 329.915 448.715 328.949C450.085 326.41 450.4 323.901 450.291 321.822Z" fill="url(#paint47_linear_45_38)"/>
<path d="M436.479 314.032C439.73 312.516 442.488 315.54 442.488 315.54C445.709 319.279 448.264 321.166 450.291 321.822C450.397 323.898 450.085 326.41 448.715 328.949C444.697 326.86 442.355 322.64 441.388 320.534C441.039 319.774 440.227 319.454 439.549 319.826C438.861 320.204 438.148 320.781 438.106 321.561C438.018 323.104 436.397 323.197 436.388 322.626C436.379 322.056 437.642 319.008 437.642 319.008C437.642 319.008 433.906 321.726 432.455 322.764C431 323.801 429.764 322.087 429.764 322.087C429.764 322.087 433.23 315.547 436.479 314.032Z" fill="url(#paint48_linear_45_38)"/>
<path d="M496.727 290.06C496.727 290.06 486.703 282.307 462.497 296.328C462.497 296.328 460.003 299.912 461.173 303.95C462.339 307.991 476.712 329.853 477.273 340.117C477.273 340.117 487.097 346.677 499.852 340.172C499.848 340.179 504.127 313.077 496.727 290.06Z" fill="url(#paint49_linear_45_38)"/>
<path d="M475.855 280.146L479.815 288.946C480.209 289.819 480.127 290.878 479.588 291.644C478.497 293.194 476.221 295.276 472.333 293.933C471.179 293.534 470.294 292.465 470.015 291.132L467.961 281.307L475.855 280.146Z" fill="url(#paint50_linear_45_38)"/>
<path d="M504.148 320.795C504.827 315.444 492.361 305.073 492.361 305.073L496.727 290.06C496.727 290.06 520.518 309.314 515.515 325.035C514.797 327.289 513.727 328.932 512.424 330.093C509.903 324.238 506.485 321.802 504.148 320.795Z" fill="url(#paint51_linear_45_38)"/>
<path d="M486.755 322.279C486.755 322.279 500.858 326.746 503.785 321.877C503.982 321.547 504.1 321.183 504.148 320.795C506.485 321.802 509.903 324.238 512.421 330.097C505.724 336.069 492.815 329.375 489.306 327.368C488.73 327.039 488.067 326.973 487.448 327.193C486.2 327.633 484.039 328.32 482.833 328.245C481.07 328.135 479.179 335.358 476.182 333.53C476.182 333.526 477.545 321.186 486.755 322.279Z" fill="url(#paint52_linear_45_38)"/>
<path d="M470.779 265.765C470.609 265.93 463.37 280.514 463.37 280.514L470.8 285.026L479.473 272.363C479.473 272.356 473.603 262.992 470.779 265.765Z" fill="url(#paint53_linear_45_38)"/>
<path d="M476.015 273.679L471.909 280.751C471.858 280.84 471.794 280.923 471.721 280.991C471.279 281.428 469.658 282.799 468.521 280.833C467.491 279.05 466.524 277.441 465.43 276.892C464.939 276.644 464.364 276.861 464.1 277.393C463.442 278.72 462.009 281.737 461.118 284.572C460.936 285.146 461.179 285.782 461.67 286.036C463.145 286.806 466.297 288.324 469.088 288.878C469.467 288.953 469.848 288.792 470.088 288.452C471.252 286.792 474.806 281.761 475.988 280.534C477.097 279.383 479.07 279.978 479.882 280.294C480.149 280.397 480.436 280.373 480.688 280.225C481.573 279.706 483.358 278.249 481.894 275.497C481.588 274.919 481.761 274.177 482.279 273.847C483.309 273.191 484.548 271.861 483.582 269.51C482.603 267.122 480.664 266.912 479.418 267.067C478.915 267.129 478.458 266.765 478.312 266.215C478.227 265.902 478.024 265.624 477.582 265.545C476.985 265.438 476.615 264.748 476.77 264.088C477.07 262.816 477.018 261.091 475.215 259.854C472.018 257.658 469.03 260.847 468.197 263.62C467.364 266.394 470.948 268.548 473.239 268.988C474.979 269.321 475.83 271.6 476.136 272.672C476.233 273.012 476.188 273.38 476.015 273.679Z" fill="url(#paint54_linear_45_38)"/>
<path d="M474.47 283.091C474.47 283.091 476.103 278.331 477.958 278.6C479.812 278.864 481.203 281.039 478.806 283.294C475.827 286.101 474.47 283.091 474.47 283.091Z" fill="url(#paint55_linear_45_38)"/>
<path d="M468.749 332.461C468.724 332.461 468.697 332.465 468.673 332.465L435.724 332.423C434.909 332.423 434.252 331.674 434.252 330.75C434.252 329.825 434.915 329.063 435.727 329.08L468.676 329.121C469.491 329.121 470.149 329.87 470.149 330.794C470.149 331.688 469.527 332.42 468.749 332.461Z" fill="url(#paint56_linear_45_38)"/>
<path d="M406.106 298.541H433.545C435.57 298.541 437.412 299.864 438.276 301.943L450.961 332.444H416.861C415.558 332.444 414.385 331.54 413.906 330.166L404.07 301.939C403.5 300.307 404.558 298.541 406.106 298.541Z" fill="url(#paint57_linear_45_38)"/>
<path d="M425.436 314.18C426.03 316.276 425.591 318.31 424.455 318.723C423.318 319.135 421.915 317.774 421.321 315.681C420.727 313.585 421.167 311.551 422.303 311.138C423.439 310.723 424.842 312.083 425.436 314.18Z" fill="url(#paint58_linear_45_38)"/>
<path d="M410.555 412.597C410.373 412.597 410.188 412.556 410.009 412.474C409.306 412.14 408.982 411.247 409.285 410.477L438.321 336.368C438.624 335.599 439.436 335.241 440.139 335.571C440.842 335.904 441.167 336.798 440.864 337.568L411.827 411.676C411.6 412.254 411.091 412.597 410.555 412.597Z" fill="#BDD0FB"/>
<path d="M443.267 412.597C442.73 412.597 442.218 412.253 441.994 411.676L412.958 337.568C412.655 336.798 412.979 335.901 413.682 335.571C414.385 335.238 415.197 335.595 415.5 336.368L444.536 410.477C444.839 411.247 444.515 412.143 443.812 412.473C443.633 412.556 443.449 412.597 443.267 412.597Z" fill="#BDD0FB"/>
<path d="M500.436 412.597C500.255 412.597 500.07 412.556 499.891 412.473C499.188 412.14 498.864 411.247 499.167 410.477L528.203 336.368C528.506 335.598 529.318 335.241 530.021 335.571C530.724 335.904 531.049 336.798 530.745 337.568L501.709 411.676C501.485 412.253 500.973 412.597 500.436 412.597Z" fill="#BDD0FB"/>
<path d="M533.149 412.597C532.612 412.597 532.1 412.253 531.876 411.676L502.839 337.568C502.536 336.798 502.861 335.901 503.564 335.571C504.267 335.238 505.079 335.595 505.382 336.368L534.418 410.477C534.721 411.247 534.397 412.143 533.694 412.473C533.515 412.556 533.33 412.597 533.149 412.597Z" fill="#BDD0FB"/>
<path d="M536.555 334.08C536.627 333.595 536.527 333.09 536.279 332.709C536.03 332.327 535.661 332.104 535.27 332.104H403.17C402.658 332.104 402.179 332.437 401.903 332.983C401.627 333.533 401.591 334.221 401.806 334.812L403.236 338.746C403.564 339.647 404.276 340.224 405.055 340.224H534.361C535.088 340.224 535.712 339.571 535.852 338.664L536.555 334.08Z" fill="#BDD0FB"/>
<path d="M380.912 491.881H547.933V453.971H380.912C384.488 453.974 384.488 491.881 380.912 491.881Z" fill="#91B3FA"/>
<path d="M547.933 482.396V465.046C547.933 458.93 544.633 453.974 540.561 453.974H381.615C378.412 453.974 375.818 451.029 375.818 447.401C375.818 446.297 376.606 445.404 377.579 445.404H551.294C555.279 445.404 561.603 452.507 561.603 461.27V485.5C561.603 493.761 555.464 500.458 551.706 500.458H378.494C377.015 500.458 375.818 499.101 375.818 497.424C375.818 494.365 378.006 491.884 380.703 491.884H541.618C545.106 491.881 547.933 487.633 547.933 482.396Z" fill="url(#paint59_linear_45_38)"/>
<path d="M543.3 462.565H386.694C386.297 462.565 385.976 462.201 385.976 461.751C385.976 461.301 386.297 460.936 386.694 460.936H543.3C543.697 460.936 544.018 461.301 544.018 461.751C544.018 462.201 543.697 462.565 543.3 462.565Z" fill="url(#paint60_linear_45_38)"/>
<path d="M543.3 468.191H386.694C386.297 468.191 385.976 467.826 385.976 467.376C385.976 466.926 386.297 466.562 386.694 466.562H543.3C543.697 466.562 544.018 466.926 544.018 467.376C544.018 467.826 543.697 468.191 543.3 468.191Z" fill="url(#paint61_linear_45_38)"/>
<path d="M543.3 473.819H386.694C386.297 473.819 385.976 473.455 385.976 473.005C385.976 472.555 386.297 472.19 386.694 472.19H543.3C543.697 472.19 544.018 472.555 544.018 473.005C544.018 473.455 543.697 473.819 543.3 473.819Z" fill="url(#paint62_linear_45_38)"/>
<path d="M543.3 479.445H386.694C386.297 479.445 385.976 479.08 385.976 478.63C385.976 478.18 386.297 477.816 386.694 477.816H543.3C543.697 477.816 544.018 478.18 544.018 478.63C544.018 479.08 543.697 479.445 543.3 479.445Z" fill="url(#paint63_linear_45_38)"/>
<path d="M543.3 485.073H386.694C386.297 485.073 385.976 484.709 385.976 484.259C385.976 483.809 386.297 483.445 386.694 483.445H543.3C543.697 483.445 544.018 483.809 544.018 484.259C544.018 484.709 543.697 485.073 543.3 485.073Z" fill="url(#paint64_linear_45_38)"/>
<path d="M399.624 445.229H545.479C546.703 445.229 547.694 444.105 547.694 442.717V406.604C547.694 405.216 546.703 404.092 545.479 404.092H399.624C398.4 404.092 397.409 405.216 397.409 406.604V442.717C397.409 444.105 398.4 445.229 399.624 445.229Z" fill="url(#paint65_linear_45_38)"/>
<path d="M516.33 440.5H527.439C529.248 440.5 530.712 438.837 530.712 436.789V412.532C530.712 410.48 529.245 408.82 527.439 408.82H516.33C514.521 408.82 513.058 410.484 513.058 412.532V436.789C513.058 438.841 514.521 440.5 516.33 440.5Z" fill="#7D97F4"/>
<path d="M506.467 440.5H507.824C509.279 440.5 510.458 439.164 510.458 437.514V411.803C510.458 410.154 509.279 408.817 507.824 408.817H506.467C505.012 408.817 503.833 410.154 503.833 411.803V437.514C503.833 439.164 505.012 440.5 506.467 440.5Z" fill="#7D97F4"/>
<path d="M95.7455 316.19C95.7455 316.19 89.994 319.362 88.9334 323.008C88.0849 325.932 81.7243 326.31 81.094 332.062C80.7697 335.031 78.8303 337.409 76.2243 337.863C69.7273 338.994 59.7152 342.818 58.1122 355.608C56.8879 365.371 61.2788 369.076 65.8849 370.357C69.2667 371.299 71.5152 375.031 70.8334 378.904C70.1758 382.618 71.1546 386.914 76.8303 390.309C89.5485 397.92 102.252 372.278 102.252 372.278L104.855 327.506L95.7455 316.19Z" fill="url(#paint66_linear_45_38)"/>
<path d="M134.009 303.372C134.009 303.372 123.924 334.554 106.736 344.299C106.736 344.299 112.458 354.883 115.442 355.526C115.442 355.526 133.803 328.88 135.673 307.049L134.009 303.372Z" fill="url(#paint67_linear_45_38)"/>
<path d="M64.8909 490.932L64.3848 495.661C64.2879 496.558 63.6667 497.266 62.8727 497.369C61.5364 497.541 59.3909 497.719 57.2909 497.468C56.3697 497.358 55.7727 496.3 56.0515 495.3C56.5636 493.475 57.5 490.733 58.8485 489.121H63.4727C64.3303 489.121 64.9939 489.97 64.8909 490.932Z" fill="url(#paint68_linear_45_38)"/>
<path d="M101.121 435.538L101.903 440.748C101.903 440.748 99.2879 470.782 98.8243 482.792C98.7515 484.675 99.1818 486.537 100.052 488.142L104.597 496.513L93.0424 488.781L92.8121 487.183L94.703 484.235L92.2242 450.589C92.0788 448.614 92.4394 446.631 93.2606 444.882L95.6515 439.789L101.121 435.538Z" fill="url(#paint69_linear_45_38)"/>
<path d="M105.358 497.73H101.67C100.979 497.73 100.327 497.369 99.9091 496.75C98.7606 495.056 96.3788 491.75 95.2394 491.664C93.7061 491.548 93.9031 497.73 93.9031 497.73H93.0425L91.9546 490.049C91.6818 488.118 92.5273 486.204 94.0576 485.297C94.0576 485.297 94.4091 488.235 96.3091 489.537C98.2091 490.836 104.042 495.492 104.042 495.492C104.042 495.492 104.758 495.376 105.542 495.537C106.703 495.774 106.539 497.73 105.358 497.73Z" fill="url(#paint70_linear_45_38)"/>
<path d="M85.2939 438.012C85.2939 438.012 69.9757 470.96 67.5424 478.482C65.1091 486.005 64.2545 492.279 64.2212 492.874C64.1697 493.802 63.1515 494.692 60.3454 494.692C58.897 494.692 58.1879 494.032 57.8394 493.396C57.5424 492.853 57.5273 492.173 57.7788 491.599C58.6636 489.565 61.4757 483.067 62.5182 480.122C63.7606 476.603 66.4364 460.655 67.903 455.112C69.3697 449.565 71.0273 443.552 77.4151 438.012C77.4121 438.012 81.797 433.143 85.2939 438.012Z" fill="url(#paint71_linear_45_38)"/>
<path d="M94.9697 384.024C98.9212 365.038 88.9121 354.299 88.9121 354.299C95.2273 347.423 106.736 344.296 106.736 344.296C106.736 344.296 117.718 353.399 116.415 360.526C115.652 364.701 108.697 385.539 108.697 385.539C108.697 385.539 102.264 388.993 94.9697 384.024Z" fill="url(#paint72_linear_45_38)"/>
<path d="M86.2122 393.426C87.8212 387.931 94.9728 384.027 94.9728 384.027C102.267 388.996 108.697 385.543 108.697 385.543C108.697 385.543 110.139 391.793 109.142 397.604C108.149 403.415 101.903 440.751 101.903 440.751C92.0637 443.012 76.9273 438.476 76.9273 438.476C83.194 425.854 84.6031 398.917 86.2122 393.426Z" fill="url(#paint73_linear_45_38)"/>
<path d="M99.5576 331.75L96.3455 348.114C96.0364 349.554 97.197 349.32 98.4818 349.045C100.585 348.595 103.297 347.667 104.206 345.811C104.297 345.622 104.345 345.409 104.37 345.196L105.749 333.849C105.858 332.949 105.43 332.076 104.697 331.708L102.033 330.368C101.009 329.853 99.8212 330.516 99.5576 331.75Z" fill="url(#paint74_linear_45_38)"/>
<path d="M88.9121 354.303C88.9121 354.303 66.4909 372.491 86.0455 391.608C86.0455 391.608 86.7909 392.563 88.2576 393.061C88.997 393.312 91.1879 395.192 92.3 396.171C92.6576 396.487 93.1727 396.377 93.4121 395.944C93.6 395.604 93.6212 395.178 93.4697 394.814L90.694 388.158C89.9243 387.343 88.7425 387.285 87.9121 388.02C87.3818 388.491 86.6061 388.295 86.3091 387.608C84.797 384.117 81.9424 373.849 93.6243 362.247C94.0637 361.811 94.1758 361.089 93.9061 360.502C93.0879 358.715 91.2121 355.165 88.9121 354.303Z" fill="url(#paint75_linear_45_38)"/>
<path d="M103.327 316.173C103.327 316.173 107.13 317.994 109.718 324.228C112.306 330.461 110.373 333.341 107.945 333.736C105.518 334.131 101.891 334.069 98.0515 330.045C94.2152 326.014 98.3819 314.011 103.327 316.173Z" fill="url(#paint76_linear_45_38)"/>
<path d="M100.633 326.715C100.633 326.715 97.7637 317.595 104.894 317.485L106.573 318.815C106.573 318.815 109.188 313.757 104.894 311.345C100.6 308.932 95.5728 310.925 93.7455 317.485C91.9182 324.045 91.6061 328.437 94.6455 331.578C97.6849 334.715 98.9394 331.159 98.9394 331.159C98.9394 331.159 97.2849 328.224 97.9576 326.654C98.6303 325.083 100.185 326.98 100.185 326.98L100.633 326.715Z" fill="url(#paint77_linear_45_38)"/>
<path d="M99.8333 327.733C99.8333 327.733 98.3818 323.035 96.4454 324.905C94.5091 326.774 98.0182 329.245 99.3939 330.045L99.8333 327.733Z" fill="url(#paint78_linear_45_38)"/>
<path d="M134.976 309.046C135.13 309.599 133.348 310.444 132.297 308.176C132.261 307.09 131.676 302.431 132.252 301.544C135.303 296.826 141.221 290.912 141.221 290.912C142.221 292.032 141.397 293.128 141.397 293.128L138.527 296.52C139.127 297.75 139.861 298.788 140.203 300.276C140.464 301.403 140.303 302.606 139.803 303.633C139.3 304.664 138.612 306.001 137.961 307.049C136.73 309.032 134.976 309.046 134.976 309.046Z" fill="url(#paint79_linear_45_38)"/>
<path d="M136.315 306.706L136.018 306.644C136.052 306.441 136.815 301.63 137.406 300.541C137.655 300.08 137.745 299.706 137.676 299.424C137.627 299.231 137.503 299.07 137.291 298.929L134.785 301.338L133.979 303.798L133.694 303.678L134.53 301.132L137.255 298.513L137.345 298.565C137.691 298.764 137.894 299.015 137.973 299.328C138.067 299.709 137.967 300.163 137.667 300.716C137.1 301.757 136.324 306.654 136.315 306.706Z" fill="url(#paint80_linear_45_38)"/>
<path d="M277.042 499.008C277.042 499.008 290.933 479.214 288.676 460.503C286.418 441.792 275.145 444.026 270.13 455.088C265.115 466.153 260.606 464.634 263.585 454.232C266.564 443.83 270.3 437.06 264.124 426.703C257.949 416.35 257.309 411.948 260.779 402.707C264.249 393.467 268.606 380.374 254.8 375.704C240.994 371.034 227.242 385.384 230.461 404.168C233.679 422.951 235.615 424.999 231.179 431.954C226.745 438.913 228.594 441.768 229.221 446.297C229.849 450.827 223.076 451.885 223.218 445.507C223.364 439.129 231.979 424.071 226.097 417.047C220.215 410.023 208.688 409.948 205.736 426.188C202.785 442.428 212.242 449.727 211.773 455.6C211.303 461.472 206.221 452.565 201.797 458.555C197.373 464.541 203.33 469.245 207.715 472.493C212.1 475.737 218.709 481.555 212.421 485.778C206.13 490.001 200.176 485.96 204.027 499.001H277.042V499.008Z" fill="#91B3FA"/>
<path d="M248.488 389.254C248.033 389.525 247.636 389.869 247.248 390.237C246.864 390.604 246.506 391.013 246.176 391.446C245.506 392.309 244.942 393.278 244.482 394.312C243.558 396.381 243.067 398.683 242.9 400.986C242.87 401.274 242.864 401.563 242.852 401.852C242.842 402.14 242.827 402.429 242.833 402.718L242.836 403.584L242.873 404.446L242.894 404.879L242.93 405.309L243.006 406.168C243.082 406.735 243.136 407.309 243.233 407.872C243.324 408.436 243.415 409.003 243.536 409.559L243.706 410.398L243.882 411.209L244.591 414.442C245.53 418.752 246.436 423.061 247.145 427.391C247.836 431.717 248.315 436.095 248.209 440.418C248.185 441.497 248.121 442.572 247.997 443.634C247.879 444.696 247.715 445.748 247.476 446.772C247.239 447.796 246.948 448.803 246.579 449.761C246.167 450.851 245.845 451.978 245.594 453.098C245.118 455.345 244.839 457.589 244.624 459.826C244.415 462.064 244.255 464.294 244.127 466.517C243.858 470.964 243.627 475.397 243.061 479.771C242.988 480.317 242.915 480.864 242.824 481.403C242.745 481.95 242.639 482.486 242.542 483.025C242.452 483.568 242.321 484.097 242.212 484.634C242.152 484.898 242.079 485.163 242.015 485.427C241.948 485.692 241.885 485.957 241.803 486.214L241.57 486.994C241.491 487.256 241.394 487.503 241.306 487.761C241.136 488.276 240.915 488.764 240.715 489.262C240.264 490.231 239.736 491.156 239.088 491.981L239.245 492.156C239.961 491.369 240.57 490.465 241.103 489.506C241.609 488.534 242.052 487.513 242.412 486.458C243.152 484.355 243.639 482.163 244.039 479.96C244.836 475.551 245.215 471.087 245.645 466.661C245.864 464.448 246.058 462.239 246.327 460.053C246.594 457.871 246.924 455.706 247.421 453.631C247.682 452.6 247.976 451.607 248.358 450.655C248.791 449.583 249.133 448.473 249.412 447.346C249.694 446.222 249.888 445.078 250.033 443.933C250.185 442.789 250.27 441.638 250.315 440.493C250.485 435.899 249.982 431.377 249.306 426.94C248.615 422.501 247.682 418.14 246.636 413.827C246.373 412.752 246.109 411.673 245.833 410.601L245.627 409.796L245.439 409.013C245.306 408.494 245.203 407.965 245.094 407.439C244.979 406.913 244.903 406.384 244.806 405.855L244.697 405.058C244.658 404.793 244.624 404.525 244.6 404.257C244.47 403.188 244.436 402.116 244.427 401.047C244.424 399.975 244.503 398.907 244.664 397.852C244.83 396.8 245.055 395.755 245.391 394.749C245.564 394.25 245.752 393.756 245.973 393.278C246.182 392.793 246.427 392.329 246.694 391.879C247.227 390.986 247.858 390.13 248.606 389.453L248.488 389.254Z" fill="url(#paint81_linear_45_38)"/>
<path d="M278.058 456.297C277.642 459.799 277.055 463.273 276.336 466.699C275.976 468.41 275.576 470.112 275.133 471.799C275.03 472.221 274.906 472.637 274.791 473.06C274.679 473.479 274.555 473.895 274.433 474.314C274.2 475.153 273.933 475.974 273.676 476.802C273.397 477.62 273.127 478.441 272.824 479.249C272.542 480.067 272.221 480.86 271.909 481.665C271.255 483.252 270.567 484.816 269.8 486.335C269.036 487.857 268.191 489.321 267.294 490.747C266.376 492.159 265.379 493.503 264.321 494.805L264.47 494.991C265.694 493.871 266.821 492.609 267.858 491.255C268.879 489.888 269.809 488.434 270.664 486.922C271.488 485.393 272.264 483.826 272.933 482.204C273.261 481.39 273.597 480.579 273.891 479.747C274.197 478.922 274.464 478.08 274.742 477.242C275 476.397 275.264 475.555 275.497 474.702C275.618 474.276 275.73 473.85 275.836 473.421C275.942 472.991 276.058 472.565 276.155 472.132C276.573 470.41 276.918 468.668 277.215 466.919C277.8 463.417 278.209 459.881 278.279 456.318L278.058 456.297Z" fill="url(#paint82_linear_45_38)"/>
<path d="M512.191 142.568L496.855 165.134C494.773 168.196 493.961 172.131 494.639 175.921C496.342 185.44 502.224 203.92 522.5 221.308C543.094 238.968 558.761 237.782 566.094 235.621C568.748 234.837 571.103 233.092 572.794 230.645L589.258 206.848L512.191 142.568Z" fill="url(#paint83_linear_45_38)"/>
<path d="M573.182 132.53L501.097 123.266C497.385 122.788 494.706 127.197 496.421 130.96C504.791 149.313 523.564 191.728 528.573 213.645C529.109 215.989 530.985 217.618 533.121 217.601L609.618 217.037C613.079 217.013 615.315 212.879 613.767 209.371C605.594 190.869 584.612 144.303 576.018 134.111C575.267 133.224 574.261 132.671 573.182 132.53Z" fill="url(#paint84_linear_45_38)"/>
<path d="M507.185 134.176C507.185 134.176 517.13 160.32 527.076 186.464C528.318 189.732 529.564 193 530.785 196.216C531.397 197.824 532.003 199.419 532.603 200.996C532.903 201.783 533.2 202.566 533.497 203.347C533.645 203.728 533.794 204.137 533.939 204.494C534.018 204.683 534.097 204.879 534.182 205.041C534.264 205.209 534.348 205.377 534.452 205.542C534.836 206.206 535.306 206.793 535.839 207.288C536.376 207.776 536.97 208.171 537.597 208.453C538.224 208.738 538.879 208.91 539.536 208.975C540.209 209.037 540.903 209.075 541.573 209.127C544.264 209.316 546.809 209.494 549.161 209.659C558.558 210.319 564.824 210.755 564.824 210.755C564.97 210.766 565.079 210.907 565.07 211.072C565.061 211.236 564.936 211.36 564.791 211.35C564.791 211.35 558.524 210.951 549.121 210.35C546.77 210.199 544.224 210.037 541.533 209.865C540.858 209.821 540.185 209.786 539.479 209.728C538.758 209.663 538.033 209.474 537.345 209.168C536.655 208.862 535.997 208.432 535.406 207.896C534.815 207.357 534.294 206.711 533.864 205.982C533.755 205.804 533.652 205.615 533.558 205.415C533.452 205.216 533.379 205.03 533.297 204.841C533.127 204.436 532.994 204.065 532.839 203.67C532.539 202.893 532.236 202.113 531.933 201.326C531.327 199.752 530.712 198.161 530.091 196.556C528.852 193.347 527.591 190.086 526.333 186.828C516.261 160.746 506.185 134.664 506.185 134.664C506.064 134.351 506.191 133.99 506.464 133.853C506.745 133.719 507.064 133.863 507.185 134.176Z" fill="#BDD0FB"/>
<path d="M557.618 170.495C557.618 170.495 591.679 211.147 594.485 217.254C597.288 223.36 591.421 250.985 591.421 250.985C597.152 274.441 597.879 299.877 587.9 313.107C587.9 313.107 575.864 282.228 581.391 269.287C586.918 256.349 589.052 251.043 589.052 251.043C589.052 251.043 593.988 221.583 592.503 217.357C592.5 217.36 554.449 172.162 557.618 170.495Z" fill="url(#paint85_linear_45_38)"/>
<path d="M588.485 265.022C588.485 265.022 588.376 265.146 588.23 265.352C588.152 265.452 588.058 265.593 587.946 265.768C587.833 265.94 587.7 266.129 587.573 266.366C587.442 266.6 587.288 266.851 587.142 267.143C587 267.438 586.845 267.758 586.682 268.098C586.521 268.442 586.382 268.826 586.218 269.222C586.139 269.421 586.052 269.624 585.976 269.837C585.906 270.053 585.833 270.273 585.761 270.5C585.688 270.727 585.612 270.957 585.536 271.194C585.458 271.428 585.379 271.668 585.324 271.923C585.2 272.424 585.07 272.943 584.936 273.476C584.861 273.74 584.818 274.019 584.767 274.297C584.718 274.575 584.667 274.861 584.615 275.146C584.518 275.72 584.391 276.301 584.339 276.905C584.273 277.51 584.206 278.122 584.136 278.744L584.085 279.211L584.064 279.685C584.049 280.001 584.036 280.321 584.021 280.641C583.994 281.28 583.958 281.922 583.939 282.572C583.952 283.221 583.964 283.871 583.976 284.524L583.994 285.5C584.003 285.826 583.994 286.153 584.03 286.476C584.082 287.122 584.13 287.768 584.182 288.407C584.233 289.046 584.285 289.682 584.333 290.307C584.418 290.929 584.503 291.544 584.585 292.149C584.667 292.754 584.749 293.348 584.827 293.933C584.867 294.225 584.903 294.513 584.948 294.795C585.003 295.077 585.055 295.355 585.109 295.63C585.321 296.73 585.518 297.767 585.703 298.726C585.867 299.692 586.106 300.551 586.291 301.321C586.479 302.09 586.645 302.761 586.779 303.31C587.052 304.413 587.206 305.046 587.206 305.046L587.209 305.056C587.236 305.169 587.179 305.286 587.079 305.321C586.979 305.352 586.876 305.286 586.849 305.176C586.849 305.176 586.682 304.547 586.391 303.444C586.245 302.891 586.07 302.224 585.867 301.455C585.67 300.685 585.415 299.826 585.233 298.857C585.03 297.895 584.812 296.853 584.582 295.754C584.524 295.479 584.467 295.201 584.406 294.915C584.358 294.63 584.315 294.338 584.27 294.046C584.179 293.458 584.088 292.86 583.994 292.252C583.9 291.644 583.806 291.022 583.709 290.396C583.648 289.764 583.585 289.122 583.524 288.476C583.464 287.83 583.4 287.177 583.339 286.524C583.3 286.197 583.303 285.867 583.288 285.537L583.255 284.548C583.23 283.888 583.209 283.225 583.185 282.565C583.194 281.905 583.218 281.249 583.236 280.596C583.245 280.27 583.255 279.947 583.264 279.62L583.279 279.136L583.324 278.658C583.385 278.019 583.442 277.39 583.5 276.771C583.539 276.149 583.661 275.548 583.752 274.957C583.8 274.661 583.845 274.369 583.894 274.081C583.939 273.792 583.982 273.503 584.055 273.228C584.182 272.672 584.309 272.132 584.43 271.61C584.485 271.345 584.561 271.094 584.639 270.847C584.715 270.6 584.788 270.359 584.861 270.119C584.933 269.881 585.003 269.648 585.073 269.421C585.145 269.194 585.236 268.981 585.315 268.771C585.482 268.352 585.618 267.943 585.782 267.576C585.952 267.211 586.109 266.868 586.255 266.552C586.406 266.239 586.57 265.964 586.703 265.706C586.836 265.448 586.979 265.232 587.097 265.043C587.215 264.854 587.318 264.692 587.418 264.558C587.612 264.284 587.706 264.174 587.706 264.174L587.721 264.156C587.93 263.912 588.273 263.909 588.488 264.146C588.703 264.383 588.706 264.772 588.497 265.016L588.485 265.022Z" fill="#BDD0FB"/>
<path d="M589.512 275.974C589.512 275.974 589.506 276.091 589.497 276.307C589.488 276.524 589.494 276.806 589.491 277.184C589.494 277.995 589.5 279.149 589.506 280.541C589.539 283.335 589.582 287.06 589.627 290.785C589.739 298.238 589.855 305.688 589.855 305.688C589.858 305.874 589.727 306.025 589.567 306.029C589.406 306.032 589.273 305.888 589.267 305.706C589.267 305.706 589.03 298.256 588.794 290.805C588.688 287.08 588.582 283.352 588.503 280.558C588.488 279.857 588.473 279.218 588.458 278.648C588.449 278.074 588.439 277.572 588.43 277.16C588.427 276.723 588.424 276.362 588.43 276.143C588.436 275.923 588.439 275.809 588.439 275.809C588.452 275.472 588.7 275.208 589 275.218C589.3 275.228 589.53 275.514 589.521 275.854C589.521 275.857 589.521 275.861 589.521 275.861L589.512 275.974Z" fill="#BDD0FB"/>
<defs>
<linearGradient id="paint0_linear_45_38" x1="2.39365" y1="233.382" x2="619.796" y2="233.382" gradientUnits="userSpaceOnUse">
<stop stop-color="#DAE3FE"/>
<stop offset="1" stop-color="#E9EFFD"/>
</linearGradient>
<linearGradient id="paint1_linear_45_38" x1="597.595" y1="262.24" x2="619.887" y2="262.24" gradientUnits="userSpaceOnUse">
<stop stop-color="#DAE3FE"/>
<stop offset="1" stop-color="#E9EFFD"/>
</linearGradient>
<linearGradient id="paint2_linear_45_38" x1="6.50229" y1="313.713" x2="24.5079" y2="313.713" gradientUnits="userSpaceOnUse">
<stop stop-color="#DAE3FE"/>
<stop offset="1" stop-color="#E9EFFD"/>
</linearGradient>
<linearGradient id="paint3_linear_45_38" x1="546.802" y1="43.9302" x2="345.576" y2="279.52" gradientUnits="userSpaceOnUse">
<stop stop-color="#4042E2"/>
<stop offset="1" stop-color="#4F52FF"/>
</linearGradient>
<linearGradient id="paint4_linear_45_38" x1="400.562" y1="144.518" x2="559.42" y2="144.518" gradientUnits="userSpaceOnUse">
<stop stop-color="#DAE3FE"/>
<stop offset="1" stop-color="#E9EFFD"/>
</linearGradient>
<linearGradient id="paint5_linear_45_38" x1="546.802" y1="43.9302" x2="345.577" y2="279.52" gradientUnits="userSpaceOnUse">
<stop stop-color="#4042E2"/>
<stop offset="1" stop-color="#4F52FF"/>
</linearGradient>
<linearGradient id="paint6_linear_45_38" x1="430.498" y1="144.518" x2="529.484" y2="144.518" gradientUnits="userSpaceOnUse">
<stop stop-color="#DAE3FE"/>
<stop offset="1" stop-color="#E9EFFD"/>
</linearGradient>
<linearGradient id="paint7_linear_45_38" x1="546.802" y1="43.9302" x2="345.577" y2="279.52" gradientUnits="userSpaceOnUse">
<stop stop-color="#FE7062"/>
<stop offset="1" stop-color="#FF928E"/>
</linearGradient>
<linearGradient id="paint8_linear_45_38" x1="459.138" y1="144.518" x2="500.844" y2="144.518" gradientUnits="userSpaceOnUse">
<stop stop-color="#DAE3FE"/>
<stop offset="1" stop-color="#E9EFFD"/>
</linearGradient>
<linearGradient id="paint9_linear_45_38" x1="459.884" y1="138.421" x2="540.828" y2="95.2411" gradientUnits="userSpaceOnUse">
<stop stop-color="#09005D"/>
<stop offset="1" stop-color="#1A0F91"/>
</linearGradient>
<linearGradient id="paint10_linear_45_38" x1="485.545" y1="138.4" x2="544.799" y2="95.0591" gradientUnits="userSpaceOnUse">
<stop stop-color="#09005D"/>
<stop offset="1" stop-color="#1A0F91"/>
</linearGradient>
<linearGradient id="paint11_linear_45_38" x1="546.342" y1="62.5795" x2="575.866" y2="62.5795" gradientUnits="userSpaceOnUse">
<stop stop-color="#4042E2"/>
<stop offset="1" stop-color="#4F52FF"/>
</linearGradient>
<linearGradient id="paint12_linear_45_38" x1="544.363" y1="54.9624" x2="564.411" y2="54.9624" gradientUnits="userSpaceOnUse">
<stop stop-color="#4042E2"/>
<stop offset="1" stop-color="#4F52FF"/>
</linearGradient>
<linearGradient id="paint13_linear_45_38" x1="540.758" y1="313.665" x2="424.371" y2="348.971" gradientUnits="userSpaceOnUse">
<stop stop-color="#FE7062"/>
<stop offset="1" stop-color="#FF928E"/>
</linearGradient>
<linearGradient id="paint14_linear_45_38" x1="394.824" y1="397.666" x2="630.07" y2="223.762" gradientUnits="userSpaceOnUse">
<stop stop-color="#FE7062"/>
<stop offset="1" stop-color="#FF928E"/>
</linearGradient>
<linearGradient id="paint15_linear_45_38" x1="386.674" y1="368.1" x2="520.453" y2="371.654" gradientUnits="userSpaceOnUse">
<stop stop-color="#4042E2"/>
<stop offset="1" stop-color="#4F52FF"/>
</linearGradient>
<linearGradient id="paint16_linear_45_38" x1="301.748" y1="460.493" x2="425.167" y2="285.785" gradientUnits="userSpaceOnUse">
<stop stop-color="#4042E2"/>
<stop offset="1" stop-color="#4F52FF"/>
</linearGradient>
<linearGradient id="paint17_linear_45_38" x1="344.925" y1="342.541" x2="245.512" y2="411.797" gradientUnits="userSpaceOnUse">
<stop stop-color="#FE7062"/>
<stop offset="1" stop-color="#FF928E"/>
</linearGradient>
<linearGradient id="paint18_linear_45_38" x1="200.914" y1="519.837" x2="307.522" y2="344.416" gradientUnits="userSpaceOnUse">
<stop stop-color="#FE7062"/>
<stop offset="1" stop-color="#FF928E"/>
</linearGradient>
<linearGradient id="paint19_linear_45_38" x1="150.66" y1="422.139" x2="264.913" y2="425.173" gradientUnits="userSpaceOnUse">
<stop stop-color="#4042E2"/>
<stop offset="1" stop-color="#4F52FF"/>
</linearGradient>
<linearGradient id="paint20_linear_45_38" x1="-48.0062" y1="500.343" x2="162.195" y2="442.554" gradientUnits="userSpaceOnUse">
<stop stop-color="#4042E2"/>
<stop offset="1" stop-color="#4F52FF"/>
</linearGradient>
<linearGradient id="paint21_linear_45_38" x1="134.964" y1="432.892" x2="61.5725" y2="495.813" gradientUnits="userSpaceOnUse">
<stop stop-color="#FE7062"/>
<stop offset="1" stop-color="#FF928E"/>
</linearGradient>
<linearGradient id="paint22_linear_45_38" x1="10.717" y1="541.625" x2="164.529" y2="410.479" gradientUnits="userSpaceOnUse">
<stop stop-color="#FE7062"/>
<stop offset="1" stop-color="#FF928E"/>
</linearGradient>
<linearGradient id="paint23_linear_45_38" x1="269.031" y1="125.356" x2="189.079" y2="100.627" gradientUnits="userSpaceOnUse">
<stop stop-color="#4042E2"/>
<stop offset="1" stop-color="#4F52FF"/>
</linearGradient>
<linearGradient id="paint24_linear_45_38" x1="266.102" y1="154.758" x2="330.615" y2="71.0666" gradientUnits="userSpaceOnUse">
<stop stop-color="#FF928E"/>
<stop offset="1" stop-color="#FEB3B1"/>
</linearGradient>
<linearGradient id="paint25_linear_45_38" x1="273.88" y1="160.755" x2="338.394" y2="77.0627" gradientUnits="userSpaceOnUse">
<stop stop-color="#FF928E"/>
<stop offset="1" stop-color="#FEB3B1"/>
</linearGradient>
<linearGradient id="paint26_linear_45_38" x1="301.698" y1="102.713" x2="301.698" y2="203.054" gradientUnits="userSpaceOnUse">
<stop stop-color="#FF928E"/>
<stop offset="1" stop-color="#FEB3B1"/>
</linearGradient>
<linearGradient id="paint27_linear_45_38" x1="149.752" y1="299.927" x2="164.489" y2="297.745" gradientUnits="userSpaceOnUse">
<stop stop-color="#09005D"/>
<stop offset="1" stop-color="#1A0F91"/>
</linearGradient>
<linearGradient id="paint28_linear_45_38" x1="154.577" y1="281.738" x2="165.415" y2="280.133" gradientUnits="userSpaceOnUse">
<stop stop-color="#FF928E"/>
<stop offset="1" stop-color="#FEB3B1"/>
</linearGradient>
<linearGradient id="paint29_linear_45_38" x1="300.071" y1="211.52" x2="325.152" y2="214.766" gradientUnits="userSpaceOnUse">
<stop stop-color="#09005D"/>
<stop offset="1" stop-color="#1A0F91"/>
</linearGradient>
<linearGradient id="paint30_linear_45_38" x1="294.354" y1="214.713" x2="306.261" y2="212.95" gradientUnits="userSpaceOnUse">
<stop stop-color="#FF928E"/>
<stop offset="1" stop-color="#FEB3B1"/>
</linearGradient>
<linearGradient id="paint31_linear_45_38" x1="155.759" y1="258.143" x2="242.418" y2="187.087" gradientUnits="userSpaceOnUse">
<stop stop-color="#09005D"/>
<stop offset="1" stop-color="#1A0F91"/>
</linearGradient>
<linearGradient id="paint32_linear_45_38" x1="307.09" y1="187.838" x2="219.633" y2="195.47" gradientUnits="userSpaceOnUse">
<stop stop-color="#09005D"/>
<stop offset="1" stop-color="#1A0F91"/>
</linearGradient>
<linearGradient id="paint33_linear_45_38" x1="219.487" y1="111.383" x2="160.829" y2="235.804" gradientUnits="userSpaceOnUse">
<stop stop-color="#4042E2"/>
<stop offset="1" stop-color="#4F52FF"/>
</linearGradient>
<linearGradient id="paint34_linear_45_38" x1="170.042" y1="73.7301" x2="194.479" y2="151.175" gradientUnits="userSpaceOnUse">
<stop stop-color="#FF928E"/>
<stop offset="1" stop-color="#FEB3B1"/>
</linearGradient>
<linearGradient id="paint35_linear_45_38" x1="198.887" y1="190.957" x2="209.339" y2="131.047" gradientUnits="userSpaceOnUse">
<stop stop-color="#4042E2"/>
<stop offset="1" stop-color="#4F52FF"/>
</linearGradient>
<linearGradient id="paint36_linear_45_38" x1="236.212" y1="74.6073" x2="211.195" y2="141.457" gradientUnits="userSpaceOnUse">
<stop stop-color="#FF928E"/>
<stop offset="1" stop-color="#FEB3B1"/>
</linearGradient>
<linearGradient id="paint37_linear_45_38" x1="233.637" y1="53.4876" x2="233.139" y2="100.986" gradientUnits="userSpaceOnUse">
<stop stop-color="#FF928E"/>
<stop offset="1" stop-color="#FEB3B1"/>
</linearGradient>
<linearGradient id="paint38_linear_45_38" x1="258.187" y1="43.1622" x2="191.948" y2="90.1553" gradientUnits="userSpaceOnUse">
<stop stop-color="#09005D"/>
<stop offset="1" stop-color="#1A0F91"/>
</linearGradient>
<linearGradient id="paint39_linear_45_38" x1="225.662" y1="53.4032" x2="225.164" y2="100.902" gradientUnits="userSpaceOnUse">
<stop stop-color="#FF928E"/>
<stop offset="1" stop-color="#FEB3B1"/>
</linearGradient>
<linearGradient id="paint40_linear_45_38" x1="446.436" y1="391.053" x2="450.795" y2="405.946" gradientUnits="userSpaceOnUse">
<stop stop-color="#09005D"/>
<stop offset="1" stop-color="#1A0F91"/>
</linearGradient>
<linearGradient id="paint41_linear_45_38" x1="454.592" y1="388.827" x2="448.441" y2="387.627" gradientUnits="userSpaceOnUse">
<stop stop-color="#FF928E"/>
<stop offset="1" stop-color="#FEB3B1"/>
</linearGradient>
<linearGradient id="paint42_linear_45_38" x1="460.504" y1="356.469" x2="438.522" y2="310.863" gradientUnits="userSpaceOnUse">
<stop stop-color="#09005D"/>
<stop offset="1" stop-color="#1A0F91"/>
</linearGradient>
<linearGradient id="paint43_linear_45_38" x1="448.575" y1="382.746" x2="446.245" y2="401.237" gradientUnits="userSpaceOnUse">
<stop stop-color="#09005D"/>
<stop offset="1" stop-color="#1A0F91"/>
</linearGradient>
<linearGradient id="paint44_linear_45_38" x1="454.161" y1="404.619" x2="437.622" y2="401.391" gradientUnits="userSpaceOnUse">
<stop stop-color="#4042E2"/>
<stop offset="1" stop-color="#4F52FF"/>
</linearGradient>
<linearGradient id="paint45_linear_45_38" x1="457.75" y1="396.302" x2="451.977" y2="395.175" gradientUnits="userSpaceOnUse">
<stop stop-color="#FF928E"/>
<stop offset="1" stop-color="#FEB3B1"/>
</linearGradient>
<linearGradient id="paint46_linear_45_38" x1="471.904" y1="395.504" x2="483.748" y2="340.729" gradientUnits="userSpaceOnUse">
<stop stop-color="#09005D"/>
<stop offset="1" stop-color="#1A0F91"/>
</linearGradient>
<linearGradient id="paint47_linear_45_38" x1="262.007" y1="-34.0606" x2="191.269" y2="-132.678" gradientUnits="userSpaceOnUse">
<stop stop-color="#4042E2"/>
<stop offset="1" stop-color="#4F52FF"/>
</linearGradient>
<linearGradient id="paint48_linear_45_38" x1="439.052" y1="325.979" x2="462.594" y2="285.432" gradientUnits="userSpaceOnUse">
<stop stop-color="#FF928E"/>
<stop offset="1" stop-color="#FEB3B1"/>
</linearGradient>
<linearGradient id="paint49_linear_45_38" x1="469.671" y1="280.224" x2="516.32" y2="353.222" gradientUnits="userSpaceOnUse">
<stop stop-color="#4042E2"/>
<stop offset="1" stop-color="#4F52FF"/>
</linearGradient>
<linearGradient id="paint50_linear_45_38" x1="480.4" y1="288.642" x2="467.04" y2="286.034" gradientUnits="userSpaceOnUse">
<stop stop-color="#FF928E"/>
<stop offset="1" stop-color="#FEB3B1"/>
</linearGradient>
<linearGradient id="paint51_linear_45_38" x1="484.572" y1="270.702" x2="531.221" y2="343.7" gradientUnits="userSpaceOnUse">
<stop stop-color="#4042E2"/>
<stop offset="1" stop-color="#4F52FF"/>
</linearGradient>
<linearGradient id="paint52_linear_45_38" x1="486.017" y1="302.122" x2="495.512" y2="328.581" gradientUnits="userSpaceOnUse">
<stop stop-color="#FF928E"/>
<stop offset="1" stop-color="#FEB3B1"/>
</linearGradient>
<linearGradient id="paint53_linear_45_38" x1="460.36" y1="274.698" x2="473.394" y2="275.099" gradientUnits="userSpaceOnUse">
<stop stop-color="#FF928E"/>
<stop offset="1" stop-color="#FEB3B1"/>
</linearGradient>
<linearGradient id="paint54_linear_45_38" x1="477.255" y1="283.779" x2="462.093" y2="268.333" gradientUnits="userSpaceOnUse">
<stop stop-color="#09005D"/>
<stop offset="1" stop-color="#1A0F91"/>
</linearGradient>
<linearGradient id="paint55_linear_45_38" x1="475.696" y1="303.105" x2="477.808" y2="281.169" gradientUnits="userSpaceOnUse">
<stop stop-color="#FF928E"/>
<stop offset="1" stop-color="#FEB3B1"/>
</linearGradient>
<linearGradient id="paint56_linear_45_38" x1="474.337" y1="322.535" x2="447.605" y2="330.266" gradientUnits="userSpaceOnUse">
<stop stop-color="#09005D"/>
<stop offset="1" stop-color="#1A0F91"/>
</linearGradient>
<linearGradient id="paint57_linear_45_38" x1="438.408" y1="303.088" x2="417.069" y2="322.977" gradientUnits="userSpaceOnUse">
<stop stop-color="#09005D"/>
<stop offset="1" stop-color="#1A0F91"/>
</linearGradient>
<linearGradient id="paint58_linear_45_38" x1="427.021" y1="308.709" x2="416.915" y2="322.129" gradientUnits="userSpaceOnUse">
<stop stop-color="#4042E2"/>
<stop offset="1" stop-color="#4F52FF"/>
</linearGradient>
<linearGradient id="paint59_linear_45_38" x1="467.978" y1="328.094" x2="468.757" y2="453.177" gradientUnits="userSpaceOnUse">
<stop stop-color="#E1473D"/>
<stop offset="1" stop-color="#E9605A"/>
</linearGradient>
<linearGradient id="paint60_linear_45_38" x1="385.978" y1="461.751" x2="544.018" y2="461.751" gradientUnits="userSpaceOnUse">
<stop stop-color="#DAE3FE"/>
<stop offset="1" stop-color="#E9EFFD"/>
</linearGradient>
<linearGradient id="paint61_linear_45_38" x1="385.978" y1="467.378" x2="544.018" y2="467.378" gradientUnits="userSpaceOnUse">
<stop stop-color="#DAE3FE"/>
<stop offset="1" stop-color="#E9EFFD"/>
</linearGradient>
<linearGradient id="paint62_linear_45_38" x1="385.978" y1="473.005" x2="544.018" y2="473.005" gradientUnits="userSpaceOnUse">
<stop stop-color="#DAE3FE"/>
<stop offset="1" stop-color="#E9EFFD"/>
</linearGradient>
<linearGradient id="paint63_linear_45_38" x1="385.978" y1="478.632" x2="544.018" y2="478.632" gradientUnits="userSpaceOnUse">
<stop stop-color="#DAE3FE"/>
<stop offset="1" stop-color="#E9EFFD"/>
</linearGradient>
<linearGradient id="paint64_linear_45_38" x1="385.978" y1="484.258" x2="544.018" y2="484.258" gradientUnits="userSpaceOnUse">
<stop stop-color="#DAE3FE"/>
<stop offset="1" stop-color="#E9EFFD"/>
</linearGradient>
<linearGradient id="paint65_linear_45_38" x1="491.7" y1="242.274" x2="476.174" y2="357.276" gradientUnits="userSpaceOnUse">
<stop stop-color="#09005D"/>
<stop offset="1" stop-color="#1A0F91"/>
</linearGradient>
<linearGradient id="paint66_linear_45_38" x1="100.892" y1="315.031" x2="55.8601" y2="395.755" gradientUnits="userSpaceOnUse">
<stop stop-color="#09005D"/>
<stop offset="1" stop-color="#1A0F91"/>
</linearGradient>
<linearGradient id="paint67_linear_45_38" x1="125.044" y1="319.114" x2="101.164" y2="367.026" gradientUnits="userSpaceOnUse">
<stop stop-color="#A22B25"/>
<stop offset="1" stop-color="#C0423C"/>
</linearGradient>
<linearGradient id="paint68_linear_45_38" x1="64.9008" y1="493.359" x2="55.9829" y2="493.359" gradientUnits="userSpaceOnUse">
<stop stop-color="#4042E2"/>
<stop offset="1" stop-color="#4F52FF"/>
</linearGradient>
<linearGradient id="paint69_linear_45_38" x1="92.1945" y1="466.027" x2="104.597" y2="466.027" gradientUnits="userSpaceOnUse">
<stop stop-color="#A22B25"/>
<stop offset="1" stop-color="#C0423C"/>
</linearGradient>
<linearGradient id="paint70_linear_45_38" x1="106.333" y1="491.512" x2="91.9028" y2="491.512" gradientUnits="userSpaceOnUse">
<stop stop-color="#4042E2"/>
<stop offset="1" stop-color="#4F52FF"/>
</linearGradient>
<linearGradient id="paint71_linear_45_38" x1="57.6027" y1="465.272" x2="85.2949" y2="465.272" gradientUnits="userSpaceOnUse">
<stop stop-color="#A22B25"/>
<stop offset="1" stop-color="#C0423C"/>
</linearGradient>
<linearGradient id="paint72_linear_45_38" x1="102.266" y1="361.712" x2="94.0415" y2="429.006" gradientUnits="userSpaceOnUse">
<stop stop-color="#4042E2"/>
<stop offset="1" stop-color="#4F52FF"/>
</linearGradient>
<linearGradient id="paint73_linear_45_38" x1="66.9183" y1="365.027" x2="105.111" y2="418.914" gradientUnits="userSpaceOnUse">
<stop stop-color="#09005D"/>
<stop offset="1" stop-color="#1A0F91"/>
</linearGradient>
<linearGradient id="paint74_linear_45_38" x1="103.991" y1="365.58" x2="100.907" y2="345.685" gradientUnits="userSpaceOnUse">
<stop stop-color="#C4421B"/>
<stop offset="1" stop-color="#5C0E16"/>
</linearGradient>
<linearGradient id="paint75_linear_45_38" x1="94.0551" y1="375.326" x2="78.0409" y2="375.326" gradientUnits="userSpaceOnUse">
<stop stop-color="#A22B25"/>
<stop offset="1" stop-color="#C0423C"/>
</linearGradient>
<linearGradient id="paint76_linear_45_38" x1="110.076" y1="339.794" x2="84.7641" y2="300.071" gradientUnits="userSpaceOnUse">
<stop stop-color="#A22B25"/>
<stop offset="1" stop-color="#C0423C"/>
</linearGradient>
<linearGradient id="paint77_linear_45_38" x1="101.332" y1="315.277" x2="56.2999" y2="396.001" gradientUnits="userSpaceOnUse">
<stop stop-color="#09005D"/>
<stop offset="1" stop-color="#1A0F91"/>
</linearGradient>
<linearGradient id="paint78_linear_45_38" x1="105.598" y1="342.647" x2="80.287" y2="302.924" gradientUnits="userSpaceOnUse">
<stop stop-color="#A22B25"/>
<stop offset="1" stop-color="#C0423C"/>
</linearGradient>
<linearGradient id="paint79_linear_45_38" x1="128.883" y1="321.028" x2="105.003" y2="368.94" gradientUnits="userSpaceOnUse">
<stop stop-color="#A22B25"/>
<stop offset="1" stop-color="#C0423C"/>
</linearGradient>
<linearGradient id="paint80_linear_45_38" x1="132.993" y1="267.17" x2="142.905" y2="360.23" gradientUnits="userSpaceOnUse">
<stop stop-color="#A22B25"/>
<stop offset="1" stop-color="#C0423C"/>
</linearGradient>
<linearGradient id="paint81_linear_45_38" x1="239.085" y1="440.708" x2="250.342" y2="440.708" gradientUnits="userSpaceOnUse">
<stop stop-color="#DAE3FE"/>
<stop offset="1" stop-color="#E9EFFD"/>
</linearGradient>
<linearGradient id="paint82_linear_45_38" x1="264.321" y1="475.642" x2="278.279" y2="475.642" gradientUnits="userSpaceOnUse">
<stop stop-color="#DAE3FE"/>
<stop offset="1" stop-color="#E9EFFD"/>
</linearGradient>
<linearGradient id="paint83_linear_45_38" x1="475.561" y1="246.647" x2="572.281" y2="179.466" gradientUnits="userSpaceOnUse">
<stop stop-color="#09005D"/>
<stop offset="1" stop-color="#1A0F91"/>
</linearGradient>
<linearGradient id="paint84_linear_45_38" x1="566.126" y1="93.6512" x2="551.428" y2="172.784" gradientUnits="userSpaceOnUse">
<stop stop-color="#09005D"/>
<stop offset="1" stop-color="#1A0F91"/>
</linearGradient>
<linearGradient id="paint85_linear_45_38" x1="572.913" y1="180.351" x2="608.247" y2="314.467" gradientUnits="userSpaceOnUse">
<stop stop-color="#09005D"/>
<stop offset="1" stop-color="#1A0F91"/>
</linearGradient>
</defs>
</svg>
