<svg width="20" height="19" viewBox="0 0 20 19" fill="none" xmlns="http://www.w3.org/2000/svg">
<path d="M19.2372 3.28843L10.2372 0.288432C10.0832 0.237108 9.91677 0.237108 9.76281 0.288432L0.762813 3.28843C0.626684 3.33435 0.506606 3.41839 0.41686 3.53058C0.327114 3.64276 0.271476 3.77836 0.256563 3.92124C0.252163 3.94726 0.249967 3.97361 0.25 3.99999V11.5C0.25 11.6989 0.329018 11.8897 0.46967 12.0303C0.610323 12.171 0.801088 12.25 1 12.25C1.19891 12.25 1.38968 12.171 1.53033 12.0303C1.67098 11.8897 1.75 11.6989 1.75 11.5V5.04062L4.89906 6.08968C4.0624 7.44137 3.79634 9.06985 4.15932 10.6175C4.52229 12.1652 5.48462 13.5056 6.835 14.3444C5.1475 15.0062 3.68875 16.2034 2.62188 17.8403C2.56639 17.9228 2.52785 18.0154 2.5085 18.1129C2.48914 18.2104 2.48936 18.3108 2.50913 18.4082C2.52891 18.5056 2.56785 18.5981 2.62369 18.6803C2.67953 18.7626 2.75116 18.8329 2.83441 18.8872C2.91766 18.9415 3.01087 18.9787 3.10863 18.9966C3.20639 19.0146 3.30674 19.0129 3.40386 18.9918C3.50097 18.9706 3.59291 18.9304 3.67433 18.8733C3.75575 18.8163 3.82502 18.7437 3.87813 18.6597C5.29094 16.4922 7.52219 15.25 10 15.25C12.4778 15.25 14.7091 16.4922 16.1219 18.6597C16.2319 18.8232 16.4018 18.9368 16.5949 18.976C16.788 19.0152 16.9888 18.9768 17.1539 18.8692C17.3189 18.7615 17.435 18.5933 17.4769 18.4007C17.5189 18.2082 17.4834 18.0069 17.3781 17.8403C16.3112 16.2034 14.8469 15.0062 13.165 14.3444C14.5141 13.5056 15.4755 12.1661 15.8384 10.6196C16.2013 9.07302 15.9361 7.44567 15.1009 6.09437L19.2372 4.71624C19.3866 4.66649 19.5165 4.57099 19.6086 4.44328C19.7006 4.31557 19.7502 4.16212 19.7502 4.00468C19.7502 3.84724 19.7006 3.6938 19.6086 3.56609C19.5165 3.43837 19.3866 3.34287 19.2372 3.29312V3.28843ZM14.5 9.25C14.5002 9.96142 14.3317 10.6628 14.0084 11.2965C13.6851 11.9302 13.2161 12.4782 12.6399 12.8955C12.0638 13.3129 11.3969 13.5877 10.694 13.6974C9.99107 13.8072 9.27216 13.7486 8.59623 13.5267C7.92031 13.3048 7.30663 12.9258 6.80555 12.4207C6.30448 11.9157 5.93028 11.2991 5.71367 10.6214C5.49705 9.94378 5.44419 9.22443 5.55942 8.5224C5.67465 7.82036 5.95469 7.15566 6.37656 6.58281L9.76281 7.70781C9.91677 7.75913 10.0832 7.75913 10.2372 7.70781L13.6234 6.58281C14.1932 7.3553 14.5005 8.29009 14.5 9.25ZM10 6.20968L3.37188 3.99999L10 1.79031L16.6281 3.99999L10 6.20968Z" fill="black"/>
</svg>
