<svg width="23" height="22" viewBox="0 0 23 22" fill="none" xmlns="http://www.w3.org/2000/svg">
<path d="M20.1667 16V7H6.16667V16H20.1667ZM20.1667 2C20.6971 2 21.2058 2.21071 21.5809 2.58579C21.956 2.96086 22.1667 3.46957 22.1667 4V16C22.1667 16.5304 21.956 17.0391 21.5809 17.4142C21.2058 17.7893 20.6971 18 20.1667 18H6.16667C5.63624 18 5.12753 17.7893 4.75246 17.4142C4.37739 17.0391 4.16667 16.5304 4.16667 16V4C4.16667 3.46957 4.37739 2.96086 4.75246 2.58579C5.12753 2.21071 5.63624 2 6.16667 2H7.16667V0H9.16667V2H17.1667V0H19.1667V2H20.1667ZM2.16667 20H16.1667V22H2.16667C1.63624 22 1.12753 21.7893 0.752458 21.4142C0.377385 21.0391 0.166672 20.5304 0.166672 20V8H2.16667V20ZM18.1667 14H14.1667V10H18.1667V14Z" fill="black"/>
</svg>
