<svg width="619" height="529" viewBox="0 0 619 529" fill="none" xmlns="http://www.w3.org/2000/svg">
<path d="M183.1 349.62C177.149 351.618 169.807 352.733 161.698 347.925C152.996 342.756 147.276 333.011 142.295 324.048C135.75 312.29 129.727 302.371 118.345 296.159C110.135 291.685 101.404 289.195 93.599 281.868C84.5201 273.339 80.2195 261.35 78.8149 251.358C77.1932 239.716 78.9163 229.16 74.9778 216.751C72.5886 209.236 68.4618 202.604 62.2354 196.798C57.7321 192.598 52.8957 189.123 48.4214 184.881C33.9704 171.226 29.3802 152.112 36.8374 143.381C41.5434 133.1 54.7492 131.03 69.3595 141.238C81.0449 149.405 87.5464 162.364 95.8724 174.021C104.879 186.633 114.595 191.701 126.005 196.161C133.767 199.187 142.035 202.126 149.55 208.744C157.108 215.39 161.727 224.339 165.478 233.027C170.068 243.64 174.108 256.079 183.795 264.376C188.993 268.821 194.698 271.428 199.868 276.09C203.372 279.261 206.471 283.084 209.034 287.138C222.862 308.96 217.273 328.102 206.369 337.427C199.868 343.031 191.513 346.796 183.1 349.62Z" fill="#CEDCFD"/>
<path d="M59.8462 157.021C72.1831 174.745 84.607 192.41 97.1032 210.032C89.255 205.935 81.4214 201.837 73.5732 197.753C72.0673 196.971 71.0826 199.419 72.5741 200.186L99.6806 214.333C99.8978 214.449 100.101 214.478 100.289 214.478C110.787 229.247 121.357 243.959 131.971 258.656C117.868 254.023 103.764 249.375 89.646 244.741C88.0387 244.22 87.0251 246.652 88.6469 247.174C103.706 252.126 118.765 257.078 133.81 262.03C134.042 262.102 134.244 262.102 134.447 262.074C144.294 275.685 154.212 289.224 164.16 302.762C152.576 298.462 140.992 294.161 129.408 289.861C127.815 289.267 126.816 291.714 128.409 292.293C141.267 297.072 154.125 301.836 166.969 306.614C173.63 315.678 180.32 324.728 187.01 333.764L152.142 320.413C150.563 319.805 149.55 322.252 151.143 322.846C162.9 327.349 174.658 331.838 186.416 336.341C187.212 336.646 187.82 336.168 188.067 335.56C188.182 335.617 188.313 335.646 188.443 335.675C196.161 346.087 203.922 356.483 211.712 366.836C212.74 368.197 214.811 366.561 213.783 365.215C205.906 354.731 198.058 344.219 190.253 333.692C193.077 321.355 195.147 308.902 196.45 296.304C196.624 294.625 194.003 294.292 193.83 295.986C192.613 307.729 190.716 319.342 188.168 330.868C181.927 322.455 175.701 314.028 169.489 305.586C169.503 305.108 169.272 304.645 168.692 304.428C168.663 304.413 168.649 304.413 168.62 304.399C168.33 304.008 168.041 303.602 167.751 303.211C169.17 290.498 170.589 277.784 172.023 265.056C172.211 263.377 169.59 263.044 169.402 264.738C168.084 276.51 166.766 288.282 165.449 300.055C155.617 286.675 145.814 273.281 136.083 259.829C137.473 246.088 138.864 232.346 140.268 218.605C140.442 216.925 137.821 216.592 137.647 218.286C136.358 231.072 135.055 243.843 133.767 256.629C122.979 241.7 112.235 226.742 101.563 211.727C101.708 211.553 101.809 211.35 101.853 211.075L104.184 191.31C104.387 189.63 101.766 189.297 101.563 190.991C100.868 196.928 100.158 202.865 99.4634 208.802C86.8658 191.064 74.3551 173.253 61.9168 155.399C60.9611 153.995 58.8905 155.631 59.8462 157.021Z" fill="#FAEDEC"/>
<path d="M132.912 400.502C119.156 396.332 105.183 392.118 90.6885 391.51C76.1941 390.902 60.8453 394.363 50.4921 403.659C40.1389 412.955 36.3886 428.825 44.367 439.83C53.8659 452.92 73.9641 454.281 91.1953 454.788C115.319 455.483 142.44 458.466 157.137 475.842C164.667 484.747 167.795 496.36 176.005 504.758C190.036 519.122 214.681 519.875 235.156 514.996C255.63 510.116 274.874 500.747 295.87 498.416C319.299 495.824 342.612 502.21 365.953 505.28C446.216 515.836 527.565 493.319 576.71 434.386C583.935 425.712 590.697 414.519 586.151 404.47C580.359 391.698 565.56 382.475 550.385 383.286C513.273 385.255 475.943 386.341 438.976 382.924C405.904 379.868 373.628 371.991 340.816 367.213C263.001 355.918 207.455 376.943 132.912 400.502Z" fill="#CEDCFD"/>
<path d="M506.945 337.558C510.594 328.855 514.301 319.747 513.62 310.335C512.983 301.618 512.853 291.902 510.16 283.591C507.481 275.265 506.641 266.432 507.162 257.701C508.799 230.333 520.368 231.463 524.727 232.824C529.013 234.171 531.576 238.196 532.893 245.146C533.95 250.736 534.153 277.64 542.103 272.412C551.312 266.36 546.707 238.949 546.837 229.566C547.04 215.52 550.371 200.027 559.363 188.892C563.794 183.404 570.86 178.785 577.593 180.899C581.618 182.158 584.63 185.605 586.585 189.34C592.478 200.606 590.277 213.609 587.324 225.396C586.093 230.319 573.51 254.139 586.31 250.041C589.365 249.056 612.331 224.541 618.166 245.364C620.222 252.691 613.054 261.654 601.268 273.296C593.912 280.564 565.676 300.938 568.5 308.96C571.323 316.982 586.267 301.155 586.629 316.851C586.831 325.641 576.478 333.605 569.296 338.05C565.879 340.164 562.056 341.583 558.783 343.915C554.903 346.68 550.559 352.588 554.526 357.077C556.264 359.032 559.146 359.712 560.811 361.725C562.505 363.767 562.548 366.836 561.506 369.283C560.463 371.731 558.523 373.671 556.481 375.394C543.478 386.428 525.682 390.656 508.639 389.932C491.596 389.208 475.075 383.966 459.118 377.914" fill="#A5B9F6"/>
<g opacity="0.25">
<path d="M571.671 196.523C571.671 196.523 568.21 289.267 522.236 353.862" stroke="white" stroke-miterlimit="10" stroke-linecap="round" stroke-linejoin="round"/>
<path d="M605.771 252.039C605.771 252.039 578.925 280.579 554.338 287.891" stroke="white" stroke-miterlimit="10" stroke-linecap="round" stroke-linejoin="round"/>
<path d="M521.831 244.755C522.424 259.163 527.275 298.882 543.623 315.881" stroke="white" stroke-miterlimit="10" stroke-linecap="round" stroke-linejoin="round"/>
<path d="M575.855 321.514C575.855 321.514 565.459 333.735 529.013 343.668" stroke="white" stroke-miterlimit="10" stroke-linecap="round" stroke-linejoin="round"/>
<path d="M553.962 365.316C553.962 365.316 535.326 371.644 516.734 364.259" stroke="white" stroke-miterlimit="10" stroke-linecap="round" stroke-linejoin="round"/>
</g>
<path d="M483.806 383.894C483.806 383.894 421.629 383.894 406.555 383.894C391.482 383.894 393.929 366.025 435.863 373.975C425.582 369.269 425.51 362.97 426.393 361.291C427.189 359.741 430.129 358.756 431.866 358.901C437.195 359.365 441.249 362.623 445.926 365.244C437.47 359.741 432.214 349.649 432.561 339.571C432.663 336.805 433.256 333.822 435.298 331.954C437.586 329.84 441.336 328.435 444.391 329.044C450.053 330.173 460.45 339.614 464.606 343.625C443.479 324.193 435.428 293.568 448.953 286.574C471.73 274.816 488.932 341.438 488.932 341.438C488.932 341.438 477.609 291.367 496.606 291.077C515.604 290.787 500.154 349.243 500.154 349.243" fill="#A5B9F6"/>
<path d="M105.646 368.559C102.215 360.349 98.7105 351.763 99.3621 342.886C99.9702 334.662 100.086 325.496 102.62 317.662C105.154 309.814 105.936 301.474 105.444 293.235C103.909 267.417 92.9909 268.488 88.8785 269.777C84.8386 271.051 82.4205 274.845 81.1752 281.404C80.1761 286.675 79.9878 312.044 72.4872 307.121C63.7992 301.416 68.1432 275.569 68.0129 266.707C67.8246 253.458 64.6825 238.848 56.1972 228.35C52.0125 223.18 45.3661 218.822 39.0094 220.806C35.2012 221.993 32.3631 225.236 30.5241 228.77C24.9638 239.398 27.0489 251.662 29.8291 262.769C30.9875 267.417 42.8466 289.89 30.7848 286.009C27.9033 285.082 6.24119 261.958 0.738788 281.593C-1.20153 288.514 5.56063 296.956 16.6668 307.932C23.6027 314.781 50.2314 333.996 47.5671 341.569C44.9028 349.142 30.8137 334.213 30.4662 349.011C30.278 357.308 40.0375 364.809 46.8141 368.994C50.0287 370.992 53.6342 372.324 56.7185 374.525C60.3819 377.132 64.4797 382.706 60.7294 386.949C59.0932 388.803 56.3709 389.425 54.7926 391.337C53.1853 393.262 53.1564 396.158 54.141 398.461C55.1257 400.763 56.9646 402.602 58.876 404.224C71.1405 414.635 87.9229 418.617 103.996 417.936C120.068 417.256 135.649 412.318 150.694 406.598" fill="#A5B9F6"/>
<g opacity="0.25">
<path d="M44.5987 235.546C44.5987 235.546 47.8567 323.02 91.2098 383.952" stroke="white" stroke-miterlimit="10" stroke-linecap="round" stroke-linejoin="round"/>
<path d="M12.4386 287.906C12.4386 287.906 37.7641 314.824 60.9466 321.731" stroke="white" stroke-miterlimit="10" stroke-linecap="round" stroke-linejoin="round"/>
<path d="M91.6008 281.042C91.0505 294.625 86.4604 332.099 71.0392 348.128" stroke="white" stroke-miterlimit="10" stroke-linecap="round" stroke-linejoin="round"/>
<path d="M40.6457 353.428C40.6457 353.428 50.4486 364.954 84.8242 374.323" stroke="white" stroke-miterlimit="10" stroke-linecap="round" stroke-linejoin="round"/>
<path d="M61.2941 394.739C61.2941 394.739 78.8729 400.705 96.4081 393.74" stroke="white" stroke-miterlimit="10" stroke-linecap="round" stroke-linejoin="round"/>
</g>
<path d="M127.468 412.26C127.468 412.26 186.112 412.26 200.331 412.26C214.55 412.26 212.234 395.405 172.689 402.906C182.39 398.475 182.448 392.538 181.623 390.946C180.87 389.483 178.09 388.556 176.468 388.701C171.444 389.136 167.621 392.22 163.204 394.681C171.183 389.498 176.135 379.984 175.816 370.471C175.73 367.85 175.165 365.055 173.239 363.274C171.081 361.276 167.548 359.958 164.667 360.523C159.324 361.58 149.521 370.5 145.611 374.279C165.536 355.947 173.123 327.06 160.366 320.471C138.892 309.38 122.66 372.223 122.66 372.223C122.66 372.223 133.347 325.004 115.42 324.729C97.4942 324.453 112.076 379.579 112.076 379.579" fill="#A5B9F6"/>
<path d="M279.435 258.019C275.685 249.056 271.862 239.687 272.572 230C273.223 221.023 273.368 211.017 276.134 202.459C278.9 193.887 279.754 184.779 279.218 175.802C277.538 147.624 265.621 148.782 261.133 150.187C256.716 151.577 254.081 155.718 252.72 162.886C251.619 168.634 251.417 196.334 243.235 190.962C233.751 184.736 238.5 156.514 238.356 146.842C238.153 132.376 234.721 116.434 225.454 104.966C220.893 99.3183 213.624 94.5689 206.688 96.7264C202.532 98.0151 199.433 101.563 197.421 105.429C191.339 117.027 193.612 130.421 196.668 142.541C197.942 147.609 210.887 172.138 197.71 167.91C194.568 166.896 170.922 141.658 164.913 163.088C162.799 170.632 170.169 179.856 182.304 191.846C189.877 199.332 218.952 220.299 216.042 228.567C213.131 236.835 197.754 220.53 197.363 236.69C197.145 245.74 207.817 253.936 215.202 258.511C218.721 260.683 222.659 262.16 226.019 264.55C230.015 267.402 234.489 273.484 230.392 278.103C228.596 280.116 225.642 280.811 223.919 282.881C222.167 284.995 222.138 288.138 223.21 290.657C224.281 293.177 226.294 295.175 228.379 296.956C241.773 308.323 260.09 312.667 277.64 311.914C295.19 311.175 312.204 305.774 328.624 299.548" fill="#A5B9F6"/>
<g opacity="0.25">
<path d="M212.798 112.799C212.798 112.799 216.36 208.295 263.696 274.816" stroke="white" stroke-miterlimit="10" stroke-linecap="round" stroke-linejoin="round"/>
<path d="M177.67 169.966C177.67 169.966 205.312 199.361 230.623 206.89" stroke="white" stroke-miterlimit="10" stroke-linecap="round" stroke-linejoin="round"/>
<path d="M264.101 162.466C263.493 177.293 258.497 218.199 241.657 235.705" stroke="white" stroke-miterlimit="10" stroke-linecap="round" stroke-linejoin="round"/>
<path d="M208.483 241.497C208.483 241.497 219.184 254.081 256.716 264.318" stroke="white" stroke-miterlimit="10" stroke-linecap="round" stroke-linejoin="round"/>
<path d="M231.014 286.588C231.014 286.588 250.2 293.104 269.343 285.502" stroke="white" stroke-miterlimit="10" stroke-linecap="round" stroke-linejoin="round"/>
</g>
<path d="M303.255 305.716C303.255 305.716 367.271 305.716 382.794 305.716C398.316 305.716 395.797 287.312 352.617 295.508C363.217 290.672 363.275 284.184 362.377 282.447C361.551 280.854 358.525 279.84 356.744 279.985C351.256 280.463 347.086 283.822 342.279 286.516C350.981 280.854 356.397 270.457 356.049 260.09C355.948 257.237 355.34 254.182 353.24 252.242C350.88 250.07 347.028 248.622 343.886 249.244C338.065 250.403 327.35 260.133 323.078 264.26C344.827 244.249 353.124 212.711 339.194 205.529C315.751 193.424 298.028 262.016 298.028 262.016C298.028 262.016 309.684 210.467 290.122 210.163C270.559 209.859 286.458 270.052 286.458 270.052" fill="#A5B9F6"/>
<path d="M99.5069 144.395C100.911 144.395 100.911 142.223 99.5069 142.223C98.1023 142.223 98.1023 144.395 99.5069 144.395Z" fill="#6287F6"/>
<path d="M109.339 137.241C110.743 137.241 110.743 135.069 109.339 135.069C107.949 135.069 107.949 137.241 109.339 137.241Z" fill="#6287F6"/>
<path d="M290.918 209.685C292.323 209.685 292.323 207.513 290.918 207.513C289.513 207.513 289.513 209.685 290.918 209.685Z" fill="#6287F6"/>
<path d="M94.1348 128.293C95.5393 128.293 95.5393 126.121 94.1348 126.121C92.7447 126.121 92.7302 128.293 94.1348 128.293Z" fill="#6287F6"/>
<path d="M518.095 332.229C519.499 332.229 519.499 330.057 518.095 330.057C516.705 330.057 516.705 332.229 518.095 332.229Z" fill="#6287F6"/>
<path d="M527.941 342.061C529.346 342.061 529.346 339.889 527.941 339.889C526.536 339.889 526.536 342.061 527.941 342.061Z" fill="#6287F6"/>
<path d="M506.467 351.01C507.872 351.01 507.872 348.838 506.467 348.838C505.077 348.838 505.077 351.01 506.467 351.01Z" fill="#6287F6"/>
<path d="M479.636 79.1043C481.04 79.1043 481.04 76.9323 479.636 76.9323C478.246 76.9323 478.246 79.1043 479.636 79.1043Z" fill="#6287F6"/>
<path d="M494.84 82.6808C496.244 82.6808 496.244 80.5088 494.84 80.5088C493.45 80.5088 493.45 82.6808 494.84 82.6808Z" fill="#6287F6"/>
<path d="M480.534 94.3082C481.938 94.3082 481.938 92.1362 480.534 92.1362C479.129 92.1362 479.129 94.3082 480.534 94.3082Z" fill="#6287F6"/>
<path d="M312.377 160.496C313.782 160.496 313.782 158.324 312.377 158.324C310.987 158.324 310.973 160.496 312.377 160.496Z" fill="#6287F6"/>
<path d="M315.056 146.176C316.461 146.176 316.461 144.004 315.056 144.004C313.666 144.004 313.666 146.176 315.056 146.176Z" fill="#6287F6"/>
<path d="M325.8 161.38C327.205 161.38 327.205 159.208 325.8 159.208C324.396 159.208 324.396 161.38 325.8 161.38Z" fill="#6287F6"/>
<path d="M307.903 406.468C309.308 406.468 309.308 404.296 307.903 404.296C306.513 404.296 306.513 406.468 307.903 406.468Z" fill="#6287F6"/>
<path d="M315.954 418.095C317.358 418.095 317.358 415.923 315.954 415.923C314.564 415.923 314.564 418.095 315.954 418.095Z" fill="#6287F6"/>
<path d="M534.196 422.555C535.601 422.555 535.601 420.383 534.196 420.383C532.806 420.383 532.806 422.555 534.196 422.555Z" fill="#6287F6"/>
<path d="M504.686 184.634C506.091 184.634 506.091 182.462 504.686 182.462C503.282 182.462 503.282 184.634 504.686 184.634Z" fill="#6287F6"/>
<path d="M117.39 96.987C118.794 96.987 118.794 94.815 117.39 94.815C116 94.815 115.985 96.987 117.39 96.987Z" fill="#6287F6"/>
<path d="M228.306 35.2733C229.711 35.2733 229.711 33.1013 228.306 33.1013C226.902 33.1013 226.902 35.2733 228.306 35.2733Z" fill="#6287F6"/>
<path d="M307.903 2.172C309.308 2.172 309.308 0 307.903 0C306.513 0 306.513 2.172 307.903 2.172Z" fill="#6287F6"/>
<path d="M336.53 23.6458C337.935 23.6458 337.935 21.4738 336.53 21.4738C335.125 21.4738 335.125 23.6458 336.53 23.6458Z" fill="#6287F6"/>
<path d="M103.083 411.826C104.488 411.826 104.488 409.654 103.083 409.654C101.679 409.654 101.679 411.826 103.083 411.826Z" fill="#6287F6"/>
<path d="M61.9313 381.418C63.3358 381.418 63.3358 379.246 61.9313 379.246C60.5412 379.246 60.5412 381.418 61.9313 381.418Z" fill="#6287F6"/>
<path d="M65.5078 387.673C66.9124 387.673 66.9124 385.501 65.5078 385.501C64.1178 385.501 64.1178 387.673 65.5078 387.673Z" fill="#6287F6"/>
<path d="M58.3547 392.147C59.7593 392.147 59.7593 389.975 58.3547 389.975C56.9646 389.975 56.9646 392.147 58.3547 392.147Z" fill="#6287F6"/>
<path d="M474.278 465.489C475.683 465.489 475.683 463.317 474.278 463.317C472.874 463.317 472.874 465.489 474.278 465.489Z" fill="#6287F6"/>
<path d="M99.5069 314.332C100.911 314.332 100.911 312.16 99.5069 312.16C98.1023 312.16 98.1023 314.332 99.5069 314.332Z" fill="#6287F6"/>
<path d="M84.3029 486.962C85.7074 486.962 85.7074 484.79 84.3029 484.79C82.8983 484.79 82.8983 486.962 84.3029 486.962Z" fill="#6287F6"/>
<path d="M286.444 475.335C287.848 475.335 287.848 473.163 286.444 473.163C285.039 473.163 285.039 475.335 286.444 475.335Z" fill="#6287F6"/>
<path d="M558.349 486.962C559.754 486.962 559.754 484.79 558.349 484.79C556.959 484.79 556.945 486.962 558.349 486.962Z" fill="#6287F6"/>
<path d="M335.632 4.86527C337.037 4.86527 337.037 2.69327 335.632 2.69327C334.242 2.69327 334.228 4.86527 335.632 4.86527Z" fill="#6287F6"/>
<path d="M413.448 130.972C414.852 130.972 414.852 128.8 413.448 128.8C412.058 128.8 412.058 130.972 413.448 130.972Z" fill="#6287F6"/>
<path d="M440.279 112.191C441.684 112.191 441.684 110.019 440.279 110.019C438.889 110.019 438.889 112.191 440.279 112.191Z" fill="#6287F6"/>
<path d="M36.4465 181.058C37.851 181.058 37.851 178.886 36.4465 178.886C35.0419 178.886 35.0419 181.058 36.4465 181.058Z" fill="#6287F6"/>
<path d="M567.298 156.022C568.702 156.022 568.702 153.85 567.298 153.85C565.893 153.85 565.893 156.022 567.298 156.022Z" fill="#6287F6"/>
<path d="M315.549 126.005C381.577 164.333 427.769 232.621 438.846 308.149C439.179 310.466 434.342 307.975 433.908 307.816C359.22 280.608 309.887 207.165 312.928 127.743C312.986 126.483 314.274 125.252 315.549 126.005Z" fill="#CEDCFD"/>
<path d="M322.079 147.435C351.995 189.384 381.896 231.332 411.812 273.281C398.084 265.172 384.372 257.078 370.645 248.969C369.24 248.144 367.821 250.243 369.226 251.069C384.633 260.162 400.025 269.256 415.432 278.363C424.641 291.28 433.836 304.181 443.045 317.097C444.001 318.43 445.912 316.764 444.971 315.447C435.921 302.762 426.885 290.078 417.835 277.379C417.806 277.046 417.647 276.727 417.27 276.51C417.242 276.496 417.213 276.467 417.169 276.452C386.11 232.896 355.064 189.34 324.005 145.785C323.049 144.452 321.138 146.118 322.079 147.435Z" fill="#FAEDEC"/>
<path d="M339.976 201.402C338.615 200.505 337.196 202.604 338.557 203.502C351.213 211.857 363.883 220.212 376.538 228.567C377.899 229.465 379.318 227.365 377.957 226.467C365.302 218.112 352.646 209.757 339.976 201.402Z" fill="#FAEDEC"/>
<path d="M350.011 159.628C351.271 168.822 352.53 178.017 353.79 187.212C342.988 179.089 332.186 170.965 321.398 162.828C320.095 161.843 318.676 163.957 319.979 164.927C331.39 173.514 342.8 182.1 354.21 190.687C355.455 191.628 356.773 189.76 355.759 188.732C356.165 188.486 356.469 188.052 356.382 187.444L352.501 159.121C352.284 157.513 349.794 158.006 350.011 159.628Z" fill="#FAEDEC"/>
<path d="M379.289 192.352L377.914 224.136C377.841 225.758 380.375 225.931 380.448 224.295L381.823 192.512C381.881 190.89 379.362 190.716 379.289 192.352Z" fill="#FAEDEC"/>
<path d="M409.48 243.163C411.609 252.69 412.507 262.349 412.174 272.108C412.116 273.73 414.65 273.904 414.708 272.267C415.055 262.291 414.157 252.415 411.971 242.67C411.609 241.092 409.118 241.57 409.48 243.163Z" fill="#FAEDEC"/>
<path d="M364.795 322.614C359.683 316.171 355.05 307.628 357.338 295.522C359.814 282.505 369.269 271.124 378.088 260.988C389.657 247.695 399.185 235.85 401.733 219.068C403.587 206.977 402.761 195.104 408.293 182.231C414.736 167.244 427.595 156.616 439.266 150.433C452.877 143.236 466.633 140.659 480.157 130.277C488.338 123.992 494.68 115.941 499.053 105.69C502.21 98.2758 504.353 90.7752 507.568 83.3759C517.95 59.4984 539.424 45.3224 553.498 50.6221C568.253 51.8384 576.681 67.1727 570.628 89.7036C565.777 107.731 552.716 121.502 542.074 136.966C530.562 153.676 528.636 167.896 528.231 183.939C527.956 194.857 528.028 206.34 523.235 218.532C518.428 230.797 509.45 240.469 500.429 248.955C489.41 259.337 475.9 269.849 470.007 285.488C466.85 293.872 466.184 302.067 462.738 310.495C460.392 316.229 457.076 321.731 453.224 326.698C432.518 353.442 406.468 355.108 390.12 345.84C380.375 340.309 372.02 331.708 364.795 322.614Z" fill="#CEDCFD"/>
<path d="M546.997 85.0121C530.678 108.108 514.446 131.276 498.344 154.516C499.893 143.033 501.443 131.551 502.978 120.068C503.267 117.867 499.821 117.737 499.531 119.923L494.188 159.613C494.145 159.932 494.203 160.192 494.29 160.424C480.78 179.928 467.386 199.505 454.021 219.126C453.442 199.694 452.877 180.247 452.298 160.815C452.225 158.599 448.779 158.44 448.851 160.67C449.46 181.42 450.082 202.155 450.69 222.905C450.705 223.224 450.792 223.484 450.922 223.716C438.556 241.903 426.306 260.162 414.07 278.421C414.201 262.247 414.331 246.059 414.476 229.884C414.49 227.669 411.044 227.51 411.03 229.74C410.885 247.695 410.726 265.65 410.581 283.605C402.385 295.841 394.233 308.105 386.081 320.384L386.964 271.5C387.007 269.285 383.561 269.125 383.518 271.355C383.214 287.833 382.924 304.312 382.62 320.79C382.605 321.905 383.445 322.441 384.314 322.47C384.299 322.643 384.314 322.817 384.343 322.991C374.96 337.138 365.62 351.314 356.339 365.533C355.122 367.401 358.047 369.225 359.264 367.358C368.647 352.979 378.102 338.644 387.586 324.337C404.036 322.31 420.282 319.313 436.37 315.302C438.527 314.766 437.76 311.392 435.588 311.943C420.586 315.693 405.44 318.517 390.12 320.529C397.708 309.09 405.31 297.665 412.926 286.27C413.52 286.081 413.998 285.589 413.998 284.764C413.998 284.735 413.998 284.706 413.998 284.662C414.36 284.127 414.722 283.591 415.084 283.055C431.374 279.145 447.664 275.221 463.954 271.312C466.111 270.79 465.344 267.431 463.172 267.952C448.098 271.572 433.01 275.207 417.937 278.827C430.042 260.77 442.147 242.714 454.383 224.73C471.918 220.313 489.468 215.911 507.003 211.495C509.161 210.959 508.393 207.585 506.221 208.136C489.902 212.233 473.598 216.346 457.279 220.443C470.861 200.505 484.487 180.609 498.214 160.771C498.489 160.873 498.793 160.916 499.14 160.829L524.524 154.878C526.681 154.371 525.914 151.012 523.742 151.519C516.125 153.3 508.494 155.095 500.878 156.876C517.11 133.462 533.443 110.106 549.893 86.851C551.21 85.0266 548.285 83.2021 546.997 85.0121Z" fill="#FAEDEC"/>
<path d="M522.989 374.67L362.782 468.008L361.045 432.416L521.353 341.496L522.989 374.67Z" fill="#BF4D17"/>
<path d="M361.045 432.416L195.06 381.143L372.687 303.53L521.353 341.496L361.045 432.416Z" fill="#FF6822"/>
<path d="M196.784 416.329L362.753 467.603L361.045 432.416L195.06 381.143L196.784 416.329Z" fill="white"/>
<path d="M195.234 384.748L361.218 436.022L361.045 432.416L195.06 381.143L195.234 384.748Z" fill="#BF4D17"/>
<path d="M196.798 416.734L362.782 468.008L362.609 464.403L196.624 413.143L196.798 416.734Z" fill="#BF4D17"/>
<path d="M350.88 460.884L362.608 464.403L361.218 436.022L349.475 432.387L350.88 460.884Z" fill="#8F3B14"/>
<path d="M211.249 410.001L216.853 406.772L222.963 413.534L222.486 403.63L210.742 400.01L211.249 410.001Z" fill="#8F3B14"/>
<path d="M500.791 329.55L360.263 411.275L358.757 380.549L499.445 301.937L500.791 329.55Z" fill="white"/>
<path d="M499.575 304.601L358.916 383.734L358.757 380.549L499.445 301.937L499.575 304.601Z" fill="#4C7ED6"/>
<path d="M500.893 331.534L360.292 411.71L360.132 408.51L500.762 328.87L500.893 331.534Z" fill="#4C7ED6"/>
<path d="M501.124 336.255L361.305 416.894L360.292 411.768L495.477 334.604L501.124 336.255Z" fill="#E2D6D6"/>
<path d="M499.444 301.937L368.82 269.241L214.826 336.457L221.53 345.493L221.197 338.586L358.757 380.549L499.444 301.937Z" fill="#6CA0FA"/>
<path d="M220.357 368.415L359.481 411.391C359.857 411.507 360.248 411.232 360.234 410.856L358.786 381.244L222.659 339.194C219.184 338.123 215.636 340.613 215.796 344.001L216.78 364.042C216.896 366.04 218.315 367.792 220.357 368.415Z" fill="white"/>
<path d="M338.325 398.881L343.176 396.086L348.461 401.921L348.042 385.327L337.906 382.2L338.325 398.881Z" fill="#4C7ED6"/>
<path d="M227.887 370.601L216.317 367.053L214.826 336.457L226.395 340.005L227.887 370.601Z" fill="#4C7ED6"/>
<path d="M218.808 367.879L216.317 367.053L214.826 336.457L217.302 337.283L218.808 367.879Z" fill="#4C7ED6"/>
<path d="M214.985 339.57L358.916 383.648L358.757 380.549L214.826 336.457L214.985 339.57Z" fill="#4C7ED6"/>
<path d="M216.288 367.111L360.35 411.652L360.205 408.553L216.114 364.172L216.288 367.111Z" fill="#4C7ED6"/>
<path d="M216.867 371.774L361.305 416.894L360.19 411.652L222.659 369.066L216.867 371.774Z" fill="#E2D6D6"/>
<path d="M303.212 315.374C308.178 322.137 302.516 340.367 288.674 360.552C275.931 379.144 256.253 399.387 231.536 413.824C179.987 443.942 129.118 442.668 119.46 429.071L71.4157 358.568L258.092 249.49C258.092 249.49 302.85 314.882 303.212 315.374Z" fill="#3D3A3A"/>
<path d="M299.258 223.253L197.305 361.319L191.846 353.326L294.089 215.68L299.258 223.253Z" fill="#333030"/>
<path d="M294.089 215.68L238.312 290.773L191.846 353.312L38.9226 387.716L32.421 388.759L141.007 252.473L294.089 215.68Z" fill="#3D3A3A"/>
<path d="M37.3297 395.97L197.319 361.348L191.846 353.326L32.421 388.759L37.3297 395.97Z" fill="#333030"/>
<path d="M294.089 215.68L238.312 290.758L235.271 294.885C244.321 235.72 141.007 252.473 141.007 252.473L294.089 215.68Z" fill="#E2D6D6"/>
<path d="M303.212 315.374C308.178 322.137 302.516 340.367 288.674 360.552C288.674 360.552 292.989 332.852 281.332 315.765C265.839 293.032 245.349 296.478 245.349 296.478L268.517 264.984C268.532 264.984 302.85 314.882 303.212 315.374Z" fill="#EEE1E1"/>
<path d="M173.833 293.582C174.397 294.407 174.397 295.493 173.92 296.681C173.109 298.737 170.864 301.097 167.737 302.922C162.813 305.803 157.572 306.281 156.008 303.993C154.864 302.313 156.037 299.62 158.687 297.173C159.642 296.275 160.801 295.421 162.104 294.653C167.027 291.786 172.283 291.309 173.833 293.582Z" fill="#FF6822"/>
<path d="M164.928 298.795L115.029 364.577C115.029 364.577 105.038 373.989 97.1756 398.055" stroke="#FF6822" stroke-width="2.2408" stroke-miterlimit="10"/>
<path d="M173.833 293.582C174.397 294.407 174.397 295.493 173.92 296.681C167.273 293.104 161.336 295.624 158.687 297.173C159.642 296.275 160.801 295.421 162.104 294.653C167.027 291.786 172.283 291.309 173.833 293.582Z" fill="#BF4D17"/>
<path d="M111.236 425.973C115.218 442.19 115.362 455.975 111.583 456.772C107.804 457.568 101.505 445.072 97.5376 428.854C93.5701 412.637 93.4108 398.852 97.1901 398.055C98.2471 397.838 99.4924 398.634 100.81 400.271C104.285 404.499 108.354 414.258 111.236 425.973Z" fill="#FF6822"/>
<path d="M111.236 425.973C115.218 442.19 115.362 455.975 111.583 456.772C111.771 420.861 97.2769 403.326 97.2769 403.326L100.81 400.271C104.285 404.499 108.354 414.258 111.236 425.973Z" fill="#BF4D17"/>
<path d="M104.285 397.679C104.879 400.097 103.938 402.515 102.041 404.035C101.201 404.716 100.173 405.223 99.0001 405.469C95.2208 406.265 91.456 404.064 90.5872 400.56C90.008 398.2 90.8913 395.854 92.6868 394.319C93.5556 393.581 94.6416 393.031 95.8869 392.77C99.6661 391.974 103.431 394.174 104.285 397.679Z" fill="#FF6822"/>
<path d="M104.285 397.679C104.879 400.097 103.938 402.515 102.041 404.035C101.925 403.789 101.824 403.514 101.751 403.225C99.4055 394.768 94.0479 394.305 92.6868 394.319C93.5556 393.581 94.6416 393.031 95.8869 392.77C99.6661 391.974 103.431 394.175 104.285 397.679Z" fill="#BF4D17"/>
<path d="M481.246 215.036L459.635 221.657L511.428 390.724L533.039 384.103L481.246 215.036Z" fill="#EBC827"/>
<path d="M468.464 218.203L466.069 218.937L518.08 388.655L520.475 387.921L468.464 218.203Z" fill="#3D3A3A"/>
<path d="M474.432 216.41L472.036 217.144L524.033 386.876L526.429 386.142L474.432 216.41Z" fill="#3D3A3A"/>
<path d="M532.836 383.442L510.713 390.219L512.032 394.525L534.155 387.748L532.836 383.442Z" fill="#3D3A3A"/>
<path d="M531.112 397.027L519.803 400.488C516.82 401.4 513.649 399.72 512.737 396.738L512.057 394.522L534.182 387.745L534.863 389.961C535.789 392.944 534.11 396.115 531.112 397.027Z" fill="#FF6822"/>
<path d="M481.286 215.028L459.668 221.645L463.505 206.514L465.199 199.81L470.151 204.487L481.286 215.028Z" fill="#FBE5C6"/>
<path d="M470.151 204.487L463.505 206.514L465.199 199.81L470.151 204.487Z" fill="#3D3A3A"/>
<path d="M142.585 116.665C143.7 114.87 143.15 112.51 141.354 111.395L119.055 97.5228C117.259 96.4078 114.899 96.9581 113.784 98.7536L111.757 101.997L110.121 104.618L77.5262 156.992C76.4113 158.788 76.9615 161.148 78.757 162.263L156.211 210.467C158.006 211.582 160.366 211.032 161.481 209.236L193.685 157.484C194.8 155.689 194.25 153.329 192.454 152.214L143.801 121.936C142.02 120.821 141.47 118.461 142.585 116.665Z" fill="#D1B223"/>
<path d="M156.211 210.467L78.757 162.263C76.9615 161.148 76.4113 158.788 77.5262 156.992L115.464 108.803C116.579 107.007 118.939 106.457 120.735 107.572L198.188 155.776C199.984 156.891 200.534 159.251 199.419 161.047L161.481 209.236C160.366 211.032 158.006 211.582 156.211 210.467Z" fill="#EBC827"/>
<path d="M336.776 299.693C333.315 296.97 327.712 300.474 327.234 304.847C326.741 309.22 329.753 313.275 333.257 315.939C343.669 323.874 357.989 323.411 371.05 322.571C378.942 322.064 386.833 321.572 394.725 321.065C400.821 320.674 407.757 319.834 411.276 314.839C415.33 309.076 412 300.315 405.817 296.956C399.634 293.596 391.858 294.654 385.472 297.622C379.854 300.228 374.67 304.283 368.516 304.92C357.555 306.049 342.423 294.769 332.302 299.113" fill="#F2E5E5"/>
<path d="M426.885 143.019C424.713 143.526 416.908 143.642 409.654 144.221C408.235 140.166 406.019 131.305 402.877 120.083C402.24 117.824 399.069 113.755 395.521 112.177C393.321 111.206 390.005 113.002 390.96 117.288C391.496 119.692 392.162 123.065 394.899 130.856C398.751 141.774 401.531 147.001 403.268 149.593C403.485 150.042 403.79 150.447 404.152 150.795C404.34 151.012 404.557 151.171 404.803 151.287C405.455 151.692 406.251 151.939 407.149 151.91C413.839 151.649 413.39 151.432 421.976 148.869C427.942 147.088 426.972 148.391 428.159 146.856C429.144 145.611 428.637 142.613 426.885 143.019Z" fill="#BF4D17"/>
<path d="M371.166 131.42C372.658 136.995 373.295 142.758 373.859 148.492C374.265 152.692 373.787 157.021 372.947 161.148C372.426 163.653 371.76 166.115 371.021 168.562C370.746 169.488 368.372 176.946 368.227 177.756C368.227 177.756 400.951 179.986 402.863 180.131C402.993 173.326 396.723 151.475 402.892 138.023C407.163 128.713 402.371 128.09 399.648 119.909C398.982 117.911 394.146 113.885 392.191 113.248C391.149 112.915 390.077 112.741 389.005 112.582C383.17 111.713 370.963 108.397 369.095 116.651C368.589 118.895 369.457 126.048 370.268 128.481C370.616 129.437 370.906 130.421 371.166 131.42Z" fill="#FF6822"/>
<path d="M401.371 248.636C401.444 247.941 401.473 247.289 401.458 246.681C401.589 245.653 401.661 244.509 401.647 243.206C401.603 237.964 402.269 215.578 402.617 202.199C403.384 190.513 402.863 180.117 402.863 180.117L368.227 177.742C366.866 182.81 366.301 187.038 366.142 190.397C365.2 195.625 360.017 233.374 358.626 240.296C358.554 240.658 358.496 240.991 358.438 241.324C350.923 252.589 345.276 295.435 343.871 302.849C343.683 303.834 344.233 303.761 344.827 303.689C346.565 303.472 345.942 301.821 348.375 302.14C349.663 302.299 349.91 304.109 349.91 304.109C353.283 294.176 364.563 259.221 369.704 248.737C370.486 247.159 370.877 245.726 371.036 244.437C375.177 232.896 381.737 213.015 383.59 204.443C384.575 214.261 386.891 236.444 388.904 246.812C384.357 260.857 389.092 290.469 388.368 307.295C390.352 304.456 392.09 303.848 392.872 303.964C394.146 304.152 394.783 305.224 394.783 305.224C396.057 282.664 400.083 260.263 401.371 248.636Z" fill="#072C6E"/>
<path d="M395.203 305.209C395.55 306.006 397.317 307.917 399.851 309.264C402.385 310.61 407.916 311.537 404.76 312.363C401.603 313.188 398.041 312.319 396.245 311.899C394.45 311.479 392.683 311.32 390.526 311.161C387.688 310.943 387.688 310.77 388.281 307.599C389.107 303.24 394.102 302.632 395.203 305.209Z" fill="#21103F"/>
<path d="M349.881 303.486C350.228 304.283 350.387 308.033 352.921 309.38C355.455 310.726 360.987 311.653 357.83 312.478C354.673 313.304 351.111 312.435 349.316 312.015C347.506 311.595 347.361 309.597 345.204 309.438C342.365 309.22 342.365 309.047 342.959 305.875C343.784 301.517 348.78 300.923 349.881 303.486Z" fill="#21103F"/>
<path d="M376.408 127.047C376.886 127.323 377.364 127.612 377.856 127.887L375.032 136.619C375.423 133.766 375.901 130.566 376.408 127.047Z" fill="#FF4D2C"/>
<path d="M379.753 97.2477C379.68 97.6242 378.536 105.588 378.015 111.713C377.755 114.725 379.738 117.722 381.896 117.94C381.925 117.94 381.954 117.94 381.997 117.954C384.126 118.099 386.805 115.594 386.819 112.625C386.848 107.253 387.471 101.794 387.485 101.708L379.753 97.2477Z" fill="#D68952"/>
<path d="M375.973 91.166C376.191 98.044 376.292 99.5789 379.087 102.576C381.881 105.574 386.066 107.152 389.31 107.369C392.814 107.615 395.652 104.097 396.636 101.259C397.665 98.3192 399.098 91.3543 398.62 83.8102C398.389 79.9875 394.016 75.0643 389.179 74.7312C384.357 74.3982 375.452 74.3548 375.973 91.166Z" fill="#EB975A"/>
<path d="M398.62 79.9006C397.896 78.3657 395.522 75.9476 393.538 75.0498C389.715 72.2841 384.98 72.3855 381.215 73.6163C379.999 73.1385 378.739 72.7185 377.465 72.3565L377.552 72.1973C377.479 72.1538 370.182 68.2153 364.288 70.8217C361.016 72.2697 358.786 75.4408 357.656 80.2481L357.83 80.2916C357.034 82.869 357.005 85.6781 357.946 88.2121C358.902 90.7461 360.654 92.9326 361.595 95.4666C363.622 101.012 361.522 106.848 356.237 109.483C358.076 111.062 360.987 110.584 363.014 109.266C365.056 107.948 366.373 105.052 368.241 103.503C371.369 100.897 371.166 93.1788 375.221 93.4684L381.375 89.2837C386.327 88.1977 392.481 86.7786 395.883 84.0129C397.201 84.9252 398.331 85.8664 398.678 87.0827C399.257 89.0954 400.01 82.8545 398.62 79.9006ZM363.405 73.1095C361.262 74.3403 359.597 76.2661 358.54 78.4816C359.741 74.8326 361.725 72.3565 364.447 71.1547C369.023 69.1275 374.497 71.1837 376.553 72.1104C372.02 70.9809 367.358 70.8361 363.405 73.1095Z" fill="#0F0F0F"/>
<path d="M378.001 91.3977C378.812 93.8304 378.421 96.1472 377.146 96.5671C375.872 96.987 374.192 95.3653 373.382 92.9326C372.571 90.5 372.962 88.1977 374.236 87.7633C375.525 87.3433 377.204 88.9651 378.001 91.3977Z" fill="#EB975A"/>
<path d="M425.119 156.123L404.832 160.496V133.404L425.119 129.017V156.123Z" fill="#E0D4D4"/>
<path d="M397.621 146.885C399.257 145.596 401.415 144.322 402.906 144.163C404.398 144.004 401.864 146.016 400.705 147.073C399.547 148.13 396.26 147.971 397.621 146.885Z" fill="#EB975A"/>
<path d="M399.88 146.856C404.108 146.176 406.251 145.133 408.191 145.871C410.132 146.61 407.337 149.318 405.889 149.781C404.456 150.244 399.402 152.199 397.896 151.215C396.405 150.215 396.752 147.348 399.88 146.856Z" fill="#EB975A"/>
<path d="M397.114 146.711C394.899 147.117 381.577 146.624 373.874 146.827C374.352 142.136 375.713 133.824 377.132 123.456C377.45 121.14 376.162 116.13 373.526 113.277C371.89 111.51 368.14 111.844 367.314 116.144C366.851 118.562 366.113 121.922 365.533 130.161C364.578 143.671 365.389 149.477 366.04 152.04C366.185 152.619 366.562 153.068 367.054 153.387C367.792 154.169 368.849 154.704 370.138 154.719C377.103 154.777 379.666 154.661 388.716 152.431C395 150.882 396.955 152.33 398.258 150.78C399.33 149.52 398.953 146.378 397.114 146.711Z" fill="#BF4D17"/>
<path d="M424.887 144.8C424.887 143.598 424.974 141.759 425.553 140.108C425.886 139.167 426.943 138.472 427.725 139.327C428.406 140.065 429.578 143.062 429.072 144.496C428.652 145.712 427.566 146.842 426.509 147.319C425.452 147.783 424.887 146.755 424.887 144.8Z" fill="#EB975A"/>
<path d="M490.8 134.07L480.548 124.977L540.264 108.412L519.456 158.86L502.717 143.859L495.752 150.273L490.8 134.07Z" fill="#6CA0FA"/>
<path d="M540.264 108.412L502.717 143.859L495.752 150.273L490.8 134.07L540.264 108.412Z" fill="#A9B3D1"/>
<path d="M180.059 24.4857L186.488 12.3659L124.745 17.7814L161.901 57.7462L172.327 37.8362L181.102 41.3983L180.059 24.4857Z" fill="#FF6822"/>
<path d="M124.745 17.7814L172.327 37.8362L181.102 41.3983L180.059 24.4857L124.745 17.7814Z" fill="#A9B3D1"/>
<path d="M488.165 156.254C487.325 156.732 486.499 157.224 485.659 157.716" stroke="#A5B9F6" stroke-width="0.75" stroke-linecap="round" stroke-linejoin="round"/>
<path d="M471.643 166.332C465.793 170.256 460.262 174.571 455.411 179.668C446.144 189.442 439.599 202.662 440.931 216.056C441.727 224.15 445.275 231.68 448.243 239.253C451.212 246.826 453.659 255.022 452.138 263.015C451.327 267.286 449.054 271.428 445.868 274.338" stroke="#A5B9F6" stroke-width="0.75" stroke-linecap="round" stroke-linejoin="round" stroke-dasharray="3.79 3.79"/>
<path d="M438.701 278.175C437.774 278.378 436.804 278.479 435.819 278.465" stroke="#A5B9F6" stroke-width="0.75" stroke-linecap="round" stroke-linejoin="round"/>
<path d="M191.18 49.1451C191.773 49.8981 192.367 50.6655 192.961 51.433" stroke="#A5B9F6" stroke-width="0.75" stroke-linecap="round" stroke-linejoin="round"/>
<path d="M202.228 65.6813C203.792 68.8958 205.008 72.2552 205.689 75.8028C207.6 85.8374 203.879 97.6821 194.626 102.026C182.275 107.833 168.663 98.2613 157.268 90.7462C142.02 80.697 124.847 73.5584 106.964 69.837C94.1348 67.1727 80.3933 66.3329 68.259 71.285C54.2714 76.9902 44.1498 89.8194 38.3578 103.778C32.5658 117.737 30.5531 132.926 28.5983 147.899C27.5992 155.573 26.5856 163.392 27.7874 171.038C28.9893 178.698 32.7106 186.314 39.2701 190.426C48.8993 196.465 61.3231 193.569 72.6754 194.206C87.1699 195.002 101.201 202.286 110.208 213.667C116.854 222.065 120.691 232.607 121.227 243.293" stroke="#A5B9F6" stroke-width="0.75" stroke-linecap="round" stroke-linejoin="round" stroke-dasharray="3.92 3.92"/>
<path d="M120.937 251.778C120.821 252.734 120.677 253.69 120.517 254.645" stroke="#A5B9F6" stroke-width="0.75" stroke-linecap="round" stroke-linejoin="round"/>
<path d="M214.102 477.869C213.942 476.899 213.942 475.929 214.087 474.987" stroke="#A5B9F6" stroke-width="0.75" stroke-linecap="round" stroke-linejoin="round"/>
<path d="M226.67 464.837C232.795 464.736 238.587 468.283 242.801 472.815C247.232 477.579 250.331 483.429 253.98 488.816C267.692 509.059 290.122 523.177 314.318 526.768C338.499 530.359 364.071 523.365 383.069 507.958C398.722 495.274 409.567 477.666 423.743 463.331C435.124 451.805 450.343 442.147 466.039 441.321" stroke="#A5B9F6" stroke-width="0.75" stroke-linecap="round" stroke-linejoin="round" stroke-dasharray="4.02 4.02"/>
<path d="M474.713 441.799C475.654 441.959 476.61 442.161 477.551 442.393" stroke="#A5B9F6" stroke-width="0.75" stroke-linecap="round" stroke-linejoin="round"/>
<path d="M362.652 10.9758C370.283 9.23823 377.407 15.7542 380.998 22.7046C384.589 29.655 386.356 37.6769 391.467 43.6137C400.199 53.7353 415.388 54.4448 428.753 54.1262C442.118 53.8077 457.148 53.8366 466.618 63.2631" stroke="#A5B9F6" stroke-width="0.75" stroke-miterlimit="10" stroke-linecap="round" stroke-linejoin="round" stroke-dasharray="4 4"/>
<path d="M267.603 103.205L264.87 102.047L250.217 136.633L252.951 137.791L267.603 103.205Z" fill="#3D3A3A"/>
<path d="M237.342 171.269C233.505 169.648 231.709 165.217 233.331 161.38L246.942 129.263C248.564 125.426 252.995 123.63 256.832 125.252C260.669 126.874 262.465 131.305 260.843 135.142L247.232 167.258C245.61 171.11 241.179 172.906 237.342 171.269Z" fill="#6CA0FA"/>
<path d="M317.437 79.6488C323.458 59.405 311.929 38.1128 291.685 32.0914C271.441 26.07 250.149 37.5996 244.127 57.8434C238.106 78.0872 249.636 99.3794 269.879 105.401C290.123 111.422 311.415 99.8926 317.437 79.6488Z" stroke="#4C7ED6" stroke-width="7" stroke-miterlimit="10"/>
<path d="M300.117 94.5648C314.735 84.0044 318.025 63.5934 307.464 48.9755C296.904 34.3576 276.493 31.0684 261.875 41.6287C247.257 52.1891 243.968 72.6001 254.528 87.218C265.089 101.836 285.5 105.125 300.117 94.5648Z" fill="#D0EAFF"/>
<path opacity="0.35" d="M276.409 64.5373C283.51 64.5373 289.267 59.7789 289.267 53.909C289.267 48.0392 283.51 43.2807 276.409 43.2807C269.308 43.2807 263.551 48.0392 263.551 53.909C263.551 59.7789 269.308 64.5373 276.409 64.5373Z" fill="white"/>
</svg>
