<svg width="20" height="20" viewBox="0 0 20 20" fill="none" xmlns="http://www.w3.org/2000/svg">
<path d="M1 11H2V18C2 19.103 2.897 20 4 20H16C17.103 20 18 19.103 18 18V11H19C19.1978 11 19.391 10.9413 19.5555 10.8314C19.7199 10.7215 19.848 10.5654 19.9237 10.3827C19.9993 10.2 20.0192 9.99894 19.9806 9.80499C19.942 9.61103 19.8468 9.43287 19.707 9.29302L10.707 0.293018C10.6142 0.200072 10.504 0.126334 10.3827 0.0760237C10.2614 0.025713 10.1313 -0.000183105 10 -0.000183105C9.86867 -0.000183105 9.73862 0.025713 9.61731 0.0760237C9.49599 0.126334 9.38579 0.200072 9.293 0.293018L0.293001 9.29302C0.153191 9.43287 0.0579847 9.61103 0.0194171 9.80499C-0.0191505 9.99894 0.000652574 10.2 0.0763226 10.3827C0.151993 10.5654 0.280132 10.7215 0.444542 10.8314C0.608952 10.9413 0.80225 11 1 11ZM8 18V13H12V18H8ZM10 2.41402L16 8.41402V13L16.001 18H14V13C14 11.897 13.103 11 12 11H8C6.897 11 6 11.897 6 13V18H4V8.41402L10 2.41402Z" fill="black"/>
</svg>
