<svg width="24" height="24" viewBox="0 0 24 24" fill="none" xmlns="http://www.w3.org/2000/svg">
<path d="M12.2646 4.22474e-05C8.09602 -0.0111205 4.42769 2.19074 2.33111 5.51724C2.23817 5.66515 2.34204 5.8605 2.51425 5.8605H4.43589C4.5671 5.8605 4.6901 5.80189 4.77211 5.69864C4.96345 5.46143 5.16846 5.23259 5.38441 5.01492C6.27552 4.10794 7.31151 3.39352 8.46504 2.89678C9.65683 2.38329 10.9252 2.12097 12.2345 2.12097C13.5438 2.12097 14.8122 2.3805 16.004 2.89678C17.1575 3.39352 18.1935 4.10794 19.0846 5.01492C19.9757 5.92189 20.6727 6.97957 21.162 8.15445C21.6677 9.37119 21.9219 10.6633 21.9219 12C21.9219 13.3368 21.665 14.6289 21.162 15.8456C20.6755 17.0205 19.9757 18.0781 19.0846 18.9851C18.1935 19.8921 17.1575 20.6065 16.004 21.1033C14.8112 21.6176 13.5293 21.8814 12.2345 21.8791C10.9252 21.8791 9.65683 21.6167 8.46504 21.1033C7.31377 20.607 6.26761 19.8877 5.38441 18.9851C5.16846 18.7647 4.96618 18.5358 4.77211 18.3014C4.6901 18.1981 4.56436 18.1395 4.43589 18.1395H2.51425C2.34204 18.1395 2.23544 18.3349 2.33111 18.4828C4.42495 21.8009 8.07688 24 12.2345 24C18.691 24 23.9338 18.6949 23.9994 12.1228C24.065 5.44468 18.814 0.0167864 12.2646 4.22474e-05ZM8.8018 15.1256V13.0047H0.218678C0.0984052 13.0047 0 12.9042 0 12.7814V11.2186C0 11.0958 0.0984052 10.9954 0.218678 10.9954H8.8018V8.87444C8.8018 8.68747 9.01501 8.58142 9.15715 8.69863L13.036 11.8242C13.0621 11.8451 13.0832 11.8718 13.0978 11.9022C13.1123 11.9327 13.1199 11.9661 13.1199 12C13.1199 12.0339 13.1123 12.0673 13.0978 12.0978C13.0832 12.1283 13.0621 12.155 13.036 12.1758L9.15715 15.3014C9.01501 15.4158 8.8018 15.3126 8.8018 15.1256Z" fill="#F6E5E5"/>
</svg>
