<svg width="50" height="50" viewBox="0 0 100 100" fill="none" xmlns="http://www.w3.org/2000/svg">
<path d="M42.6475 30.4225L51.51 2.84L56.1325 20.1025L83.6775 11.975L42.6475 30.4225Z" fill="#E32028"/>
<path d="M61.3975 16.84C64.0223 16.84 66.15 14.8745 66.15 12.45C66.15 10.0255 64.0223 8.06 61.3975 8.06C58.7728 8.06 56.645 10.0255 56.645 12.45C56.645 14.8745 58.7728 16.84 61.3975 16.84Z" fill="#E32028"/>
<path d="M24.4775 41.0725C27.1023 41.0725 29.23 39.107 29.23 36.6825C29.23 34.2579 27.1023 32.2925 24.4775 32.2925C21.8528 32.2925 19.725 34.2579 19.725 36.6825C19.725 39.107 21.8528 41.0725 24.4775 41.0725Z" fill="#0374BB"/>
<path d="M80.0825 41.735C82.7072 41.735 84.835 39.7695 84.835 37.345C84.835 34.9205 82.7072 32.955 80.0825 32.955C77.4578 32.955 75.33 34.9205 75.33 37.345C75.33 39.7695 77.4578 41.735 80.0825 41.735Z" fill="#9A4C9D"/>
<path d="M59.15 75.31C61.7748 75.31 63.9025 73.3445 63.9025 70.92C63.9025 68.4955 61.7748 66.53 59.15 66.53C56.5253 66.53 54.3975 68.4955 54.3975 70.92C54.3975 73.3445 56.5253 75.31 59.15 75.31Z" fill="#FAA92D"/>
<path d="M18.955 74.6575C21.5797 74.6575 23.7075 72.692 23.7075 70.2675C23.7075 67.843 21.5797 65.8775 18.955 65.8775C16.3303 65.8775 14.2025 67.843 14.2025 70.2675C14.2025 72.692 16.3303 74.6575 18.955 74.6575Z" fill="#12A890"/>
<path d="M62.4875 28.585L97.1601 10.7875L72.1201 33.9825L77.45 55.695L62.4875 28.585Z" fill="#9A4C9D"/>
<path d="M29.935 86.5425L64.735 45.7875L79.375 70.465L58.635 61.5675L29.935 86.5425Z" fill="#FAA92D"/>
<path d="M16.9 97.16L43.225 64.415L12.7275 57.1775L27.9775 67.2625L16.9 97.16Z" fill="#12A890"/>
<path d="M2.84003 51.305L29.2275 54.5675L42.6475 18.7975L28.5225 43L2.84003 51.305Z" fill="#0374BB"/>
<path d="M55.9248 36.0039V36.8672C55.9248 37.2227 55.8529 37.4469 55.709 37.54C55.5736 37.6331 55.0615 37.8828 54.1729 38.2891C53.2926 38.6953 52.4463 39.1735 51.6338 39.7236C51.9469 39.2666 52.2305 38.9281 52.4844 38.708C52.7467 38.488 53.098 38.2129 53.5381 37.8828C53.1572 37.7305 52.6283 37.6543 51.9512 37.6543C50.9017 37.6543 49.7676 37.8617 48.5488 38.2764C47.3385 38.6911 46.306 39.1862 45.4512 39.7617C44.6048 40.3372 44.1816 40.8197 44.1816 41.209C44.1816 41.4121 44.3086 41.5814 44.5625 41.7168C44.8249 41.8438 45.2396 41.9453 45.8066 42.0215C46.3822 42.0892 47.0973 42.1357 47.9521 42.1611C48.807 42.1865 49.8607 42.1992 51.1133 42.1992C52.0273 42.1992 52.6156 42.2331 52.8779 42.3008C53.1403 42.3685 53.2715 42.5251 53.2715 42.7705C53.2715 43.0837 53.1149 43.4434 52.8018 43.8496C52.4971 44.2474 52.0908 44.4844 51.583 44.5605C50.7959 44.6875 50.1696 44.7975 49.7041 44.8906C49.2386 44.9753 48.6842 45.1234 48.041 45.335C47.4062 45.5465 46.6995 45.8512 45.9209 46.249C44.7614 46.8584 43.8558 47.4762 43.2041 48.1025C42.5524 48.7288 42.2266 49.2832 42.2266 49.7656C42.2266 50.1803 42.4593 50.5062 42.9248 50.7432C43.3903 50.9717 44.0589 51.0859 44.9307 51.0859C47.9352 51.0859 50.9948 49.736 54.1094 47.0361C54.1263 47.8656 54.0332 48.5977 53.8301 49.2324C53.6354 49.8587 53.2334 50.4596 52.624 51.0352C52.1162 51.5176 51.3714 51.9788 50.3896 52.4189C49.4163 52.859 48.3499 53.2103 47.1904 53.4727C46.0394 53.735 44.9561 53.8662 43.9404 53.8662C42.764 53.8662 41.7907 53.5827 41.0205 53.0156C40.2503 52.457 39.8652 51.7122 39.8652 50.7812C39.8652 50.1042 40.0514 49.4313 40.4238 48.7627C40.7962 48.0941 41.3675 47.4551 42.1377 46.8457C42.9079 46.2279 43.8812 45.6693 45.0576 45.1699C46.2425 44.6706 47.6051 44.277 49.1455 43.9893C49.3656 43.9469 49.4756 43.8792 49.4756 43.7861C49.4756 43.6846 49.3444 43.6253 49.082 43.6084C48.8281 43.583 48.3542 43.5661 47.6602 43.5576C46.9746 43.5492 46.3695 43.5195 45.8447 43.4688C45.32 43.418 44.7656 43.3079 44.1816 43.1387C43.5807 42.9525 43.1152 42.6266 42.7852 42.1611C42.4635 41.6956 42.3027 41.1794 42.3027 40.6123C42.3027 39.8844 42.5651 39.1523 43.0898 38.416C43.6146 37.6797 44.3551 37.0153 45.3115 36.4229C46.2679 35.8304 47.4232 35.3564 48.7773 35.001C50.14 34.637 51.6296 34.4551 53.2461 34.4551C54.1771 34.4551 54.8245 34.5101 55.1885 34.6201C55.5609 34.7217 55.7767 34.8613 55.8359 35.0391C55.8952 35.2083 55.9248 35.5299 55.9248 36.0039Z" fill="#65BC46"/>
</svg>
