<svg width="103" height="103" viewBox="0 0 103 103" fill="none" xmlns="http://www.w3.org/2000/svg">
<path d="M85.3508 46.8259H16.8147C14.5813 46.8259 12.7707 48.6364 12.7707 50.8699V51.2956C12.7707 53.5291 14.5813 55.3397 16.8147 55.3397H85.3508C87.5842 55.3397 89.3948 53.5291 89.3948 51.2956V50.8699C89.3948 48.6364 87.5842 46.8259 85.3508 46.8259Z" fill="#231F20"/>
<path d="M85.3508 68.1104H16.8147C14.5813 68.1104 12.7707 69.9209 12.7707 72.1544V72.5801C12.7707 74.8136 14.5813 76.6241 16.8147 76.6241H85.3508C87.5842 76.6241 89.3948 74.8136 89.3948 72.5801V72.1544C89.3948 69.9209 87.5842 68.1104 85.3508 68.1104Z" fill="#231F20"/>
<path d="M85.3508 25.5414H16.8147C14.5813 25.5414 12.7707 27.352 12.7707 29.5854V30.0111C12.7707 32.2446 14.5813 34.0552 16.8147 34.0552H85.3508C87.5842 34.0552 89.3948 32.2446 89.3948 30.0111V29.5854C89.3948 27.352 87.5842 25.5414 85.3508 25.5414Z" fill="#231F20"/>
</svg>
